<svg xmlns="http://www.w3.org/2000/svg" viewBox="0 0 149.49 119.62"><defs><style>.cls-1{fill:#098a49;}</style></defs><g id="Layer_2" data-name="Layer 2"><g id="Layer_1-2" data-name="Layer 1"><path class="cls-1" d="M92.57,68.81c-2.39,2.9,2.4,6.9,4,10.4,3.17,7,6.69,13.75,13,18.62a11.59,11.59,0,0,1,4.42,7.59c.6,3.94-2.87,4.65-4.82,6.72-2.78,2.94-3.37,8.17-9.38,7.19-5.4-.88-6.2-5.57-8.32-9.12C84.88,99.14,78.45,88,71.94,76.8c-3.69,1-5.22,4-7.3,6.53-7.59,9.22-15.7,18-22,28.2-2.07,3.31-5.23,5-8.46,6.65-6.91,3.56-13.34.3-13-7.2.26-5.88,1.9-11.76,3.44-17.51a7.2,7.2,0,0,1,5.69-5.11c11.57-2.3,13.47-13.22,21.08-21.29-7-1-11.53-1.82-16.65-.92-7.8,1.37-15.92-.23-23.81,1.34-4.2.84-8,.85-9.9-4S0,54,3.77,50.78C5.86,49,8.31,48.43,11.05,48c10.54-1.6,21.06-2.71,31.74-1.66a47.71,47.71,0,0,0,7-.18c3.28-.15,4.27-2,2.59-4.59a57.91,57.91,0,0,0-9.25-11.71,28.4,28.4,0,0,1-8.54-13.25c-2-7.13-1.2-10.41,3.54-12.91s9.46-1.89,13.31,3c7.19,9.12,15.06,17.81,20,28.54a31.61,31.61,0,0,0,2.3,3.37c6.51-5.83,10.6-12.27,14.5-18.79A105.77,105.77,0,0,1,99.33,4.53c4.09-4.69,8-5.6,11.22-3.36,4.6,3.19,5.92,9,2.8,14.19-4.11,6.84-8.58,13.45-12.79,20.23-4.41,7.09-4.38,7.25,3.5,8.57,11.79,2,23.62,3.77,35.44,5.58a10.7,10.7,0,0,1,9,6.94c2.83,6.88-.28,12.32-7.71,12.15-4.67-.1-9.29.53-13.91.31-4.06-.19-12.76.13-17.59,0C103.46,69.08,92.57,68.81,92.57,68.81Z"/></g></g></svg>