<svg xmlns="http://www.w3.org/2000/svg" viewBox="0 0 773.09 144.17"><defs><style>.cls-1{stroke:#000;stroke-miterlimit:10;stroke-width:3.86px;}</style></defs><g id="Layer_2" data-name="Layer 2"><g id="Layer_1-2" data-name="Layer 1"><path class="cls-1" d="M64.45,139.36c-17.23-.2-29.5-3.12-41-9.2C6.16,121-1.8,102.88,3.61,82.71,9.15,62.07,17.09,42.56,30.8,26.45c9.74-11.46,21.71-19,35-24.15C70.27.57,77.19,5.19,79.1,10.85c1.66,4.89.1,11.15-5.08,12-11.78,2-18.09,11.93-24.84,19.9-11.8,13.93-19.27,31.15-18.69,50.8.34,11.36,9.35,16.26,17.53,19.07,7.48,2.57,15.94,2.54,23.91,2.23,4.16-.17,8.28-3.29,12.31-5.33,3.44-1.74,6.58-4.34,10.14-5.65,3.25-1.21,7.64-2.19,9.37,2.18a18,18,0,0,1,.33,10.67c-2.26,7.78-8.5,11.58-14.78,15C80.08,136.81,70.48,140.17,64.45,139.36Z"/><path class="cls-1" d="M759.33,8.69A8,8,0,0,1,764,15.5c-.39,4.18-3.48,5.5-6.39,7-10,5.28-20,10.74-30.11,15.77-3.15,1.56-4.55,3.77-4.44,7.47.15,5.33.23,10.65.47,16,.15,3.39,2,4.84,4.81,3.81a41,41,0,0,0,10.8-5.36c3.28-2.48,6.56-2,9.19.78,2.47,2.61,2.42,5.82-.25,9.75-4.38,6.42-10.73,10.11-17.8,12.31-6.13,1.91-9.09,5.46-8.76,12.81.22,4.7-1.08,9.25-1.45,13.92-.54,6.86,1.54,8.66,7.88,7.77,11.56-1.62,21.62-7.17,32.69-10,3.31-.86,7.2-2.26,9.47,1.26,2.52,3.91,0,7.85-2.66,10.06-15.39,12.93-32.13,22.77-54.4,18.87a39.64,39.64,0,0,1-10.84-3.48c-5.27-2.63-7.26-6.24-5.86-11.76,2.34-9.22,2.38-19,3.88-28.49a16.54,16.54,0,0,0,.08-5.83c-2.26-11.22.61-21.5,1-32.22a64.92,64.92,0,0,0-1.73-16.81c-1.4-6.18.49-9.61,4.85-12.1,9.85-5.59,19-12.45,30-15.95a78.25,78.25,0,0,1,8.37-2.12C746.76,8.41,754.81,6.76,759.33,8.69Z"/><path class="cls-1" d="M255.34,65.18a25.23,25.23,0,0,0,14.57-7.31c4.1-3.85,9.25-6.08,14.27-8.5,4.86-2.35,7.46-1.8,10.56,1.46,2.94,3.09,3.36,7.19.26,10.64a91.71,91.71,0,0,1-11.38,10.71c-6.58,5.18-12,11-15.88,18.29-2.61,4.91-7,8.87-9.09,14.15-1.74,4.49-5.53,10-2.25,13.7,3.45,3.91,8.6,1.16,13.47,0,4.63-1.1,13.23-3,21-6.28,5.11-2.19,13.09-4.54,19-7.47a5.05,5.05,0,0,1,5.86.5c2.09,1.76-1.32,9.79-1.86,11.62-1.12,3.76-11.17,8.1-14.58,10-5.88,3.24-7.31,4.68-19,8.31-11.51,3.57-13.41,3-26.81,3.52-7.68.27-15.58-.81-22.52-5.39-2.41-1.59-3.23-3-2.76-5.36.33-1.66.41-3.5,1.28-4.89,6.07-9.7,4.42-20.74,4.66-31.23.34-15,.19-30.09-1.65-45.15a21,21,0,0,0-2.76-9c-4.07-6.59-2.48-12.68,5.15-14.57,15.21-3.78,28.57-11.32,43.3-15.95A32.85,32.85,0,0,1,292,5.41c5.26.61,8,2.75,8.23,6.45.32,4.3-1.16,6.16-6.53,7.59A148.64,148.64,0,0,0,259.1,33.61c-3.83,2.15-5,5-5.21,8.92C253.55,49.86,256.68,57,255.34,65.18Z"/><path class="cls-1" d="M151.67,107.35c-1.9,6.23-1.11,11.39-1.07,16.46.06,8.18-2.94,12.48-9.31,12.77-7,.32-11.7-3.86-12.08-11.48-.42-8.57-.76-17.2-.34-25.76,1-21.5,2-43-1.54-64.32-.63-3.83.36-7.83-1.72-11.58-1.24-2.25.52-4.45,2.23-5.87C141.55,6.17,156.54-1,174,4.56c9.72,3.08,16,10.81,17.78,22.07,2.41,15.13-2,28.41-10.17,40.26C177.22,73.24,173.15,80,167.23,85c-3.16,2.68-1.25,4.73,1.26,6.63,10.78,8.18,21.36,16.65,32.26,24.62,5.12,3.74,3.14,1.37,7.1,6.34,4.27,5.34,4.44,8.75,1.29,13.92-2.88,4.72-8.1,6.81-13.13,5.14a16.1,16.1,0,0,1-7.18-5.13C176.59,122,166.69,120,151.67,107.35Zm17.62-65.61c0-2.85.08-5.7.05-8.56a10.91,10.91,0,0,0-4.54-8.59c-3.46-2.76-7.36-2.61-11.16-.72a6,6,0,0,0-3.5,6.08c.58,12.82,1.08,25.64,1.61,38.46.05,1.14.05,2.37,1.05,3,1.46,1,2.62-.14,3.37-1.21C162.19,61.67,168.55,53.25,169.29,41.74Z"/><path class="cls-1" d="M341.86,47.75a211.15,211.15,0,0,0-.79-24.87c-.23-3.06,1.47-5.17,3.72-7,6.45-5.3,13.85-9,21.22-12.75,4.2-2.14,7.93-1,11.47,1.91,8.58,7.11,14.28,16.19,18,26.56a84.57,84.57,0,0,1,4.47,16.89c.58,4.35.89,5.86,4.7,10a8.62,8.62,0,0,1,1.16,9.58c-2.43,4.51-2,7.22-1.29,12a183.55,183.55,0,0,1,1.12,40.71c-.53,7-1.49,9.44-7.34,14.25a16.91,16.91,0,0,1-3.27,2.52c-3,1.38-6.5,2.89-9.45,1.37s-2.18-5.43-2.07-8.39c.19-5.27.35-6.15.5-9.31a175.55,175.55,0,0,0-2.22-37.79c-.7-4.23-2.65-6.06-6.65-5.26-13.28,2.65-11.94-2-13.53,12.28-1.38,12.39-4.31,24.53-5.56,37-.9,9-10.16,13.78-18.56,10.28a5.74,5.74,0,0,1-3.71-5.9c.06-3.89-.33-7.92.56-11.62,3.25-13.54,4.65-27.33,6.15-41.11C341.3,71.32,341.53,56.09,341.86,47.75Zm25-18q-.27,12.18-.55,24.36a2.76,2.76,0,0,0,.08.81c.67,2.64,5.29,5.36,8.54,4.8,4.27-.74,2.87-3.85,2.36-6.46C375.64,44.83,373.05,36.81,366.84,29.7Z"/><path class="cls-1" d="M639.05,99.68c5-15.13,7.34-30.71,11.19-45.86q3.69-14.51,8.19-28.75c2.45-7.83,7.23-13.19,15.06-14.73,5.45-1.07,8.71,2,7.94,8a48.78,48.78,0,0,1-1.77,6.6c-6.1,21.93-12,43.9-16.19,66.42a199,199,0,0,1-11.88,39c-3,7.22-8,9.09-14.54,9.17s-10.25-3.35-12.84-9.35A116.54,116.54,0,0,1,617,107.49c-4.72-22.92-9.1-45.94-15-68.54a129.66,129.66,0,0,0-7.69-20.71c-2.46-5.4-2-6.73,2.61-9.75a51.29,51.29,0,0,1,5.65-3c6.94-3.35,10.59-2,13.9,5.64s5.33,16.21,7.26,24.53c3.86,16.69,7.38,33.47,11,50.24C635.61,90.59,636.64,95.29,639.05,99.68Z"/><path class="cls-1" d="M457.67,127.12c1.67-27.46,3.13-55.3,2.84-83.25,0-2,.06-4.09,0-6.12-.29-5.95-1.24-7.15-6.38-7.8-6.51-.81-13-1.45-19.54-2.3-6-.78-12-1.76-17.45-4.92-5.83-3.4-5.81-8.79-.12-12.57a28.29,28.29,0,0,1,21.56-3.92c2.79.59,5.6,1.61,8.48,1.85a27.68,27.68,0,0,0,13-2.38,23.83,23.83,0,0,1,8.67-1.56c4,0,8.23.91,10,1.92,2.51,1.4,11.51,2.46,15.13,2.56C506.16,9,514.62,7,526.54,5.17A37.55,37.55,0,0,1,532,4.56a5.7,5.7,0,0,1,6,4.54,7,7,0,0,1-2.52,7.67c-3.63,3-8,4.43-12.22,5.87-6.27,2.11-12.61,3.92-18.88,6-3.34,1.12-6.73,1.15-10.14,1.18a26.59,26.59,0,0,0-8.55,1.2c-2.75.94-3.47,2.73-3.55,5.8-.6,25,.43,50-1.84,74.9-.44,4.92-1.18,9.8-1.83,14.7a18.25,18.25,0,0,1-3.33,7.82c-3.66,5.4-6.78,6.46-12.23,4.3C458.25,136.71,457.19,135,457.67,127.12Z"/><path class="cls-1" d="M551.17,119.56c-1.15-11.69.38-23.8.09-36-.5-21.29,2-42.49-.66-63.87-1.09-8.89,10.47-19.67,16.79-16.1,3.91,2.21,5,6.87,5.46,11.75a230.56,230.56,0,0,1,.22,32.4c-.37,6.74-1.1,13.43-.45,20.24,1.41,14.59-1,29-.27,43.55.19,4,.22,8.12.23,12.17,0,5.35-1.27,10-4.73,13.13-7.78,7.1-15.12,2.75-16.3-9.65C551.32,124.85,551.31,122.47,551.17,119.56Z"/></g></g></svg>