<svg xmlns="http://www.w3.org/2000/svg" viewBox="0 0 1048.2 138.6"><g id="Layer_2" data-name="Layer 2"><g id="Layer_1-2" data-name="Layer 1"><path d="M230.13,133.58c-5.36-5.84-3.92-25.18-5.51-37.16-1.74-13.11-1.45-26.47-3-39.62-.94-8-3.67-15.89-5.92-25.16,5.78-13.49,17.09-21.66,33.52-23C256.51,8.1,263.73,6.75,271,6a37.63,37.63,0,0,1,9.89,0c10.21,1.7,14.35,7,13.27,17.74C292.23,43.18,280.62,57,270.56,71.87c-3.47,5.14-8.73,9-12.65,13.93-2.37,2.94-4.92,6.53-5.34,10.08-1.47,12.34-2,24.8-3.11,39.35C249.46,135.23,233.41,137.15,230.13,133.58Zm20-76.36c5.49-3.16,12.62-18,13.54-27.19-11.8-.43-14.58,1.81-14.68,12.62C248.91,47.41,249.67,52.18,250.09,57.22Z"/><path d="M791.6,94.35c2.79-13.41,5.87-26.76,8.3-40.27,1.92-10.66,3-21.54,4.53-32.3,2-13.93,9-18.77,21.34-14.26,1.32,15.91,2,32.21-.43,48.27-2.65,17.6-6.11,35.06-9.88,52.38-1.27,5.85-4.24,11.31-7,16.56-9.88,19-36.4,12.19-43.36-6.9-1.39-3.8-1.33-8.33-3-12.75-.55,4.91-1.47,9.81-1.58,14.73-.3,12.59-1.07,14.16-10.57,17.9-7.24,2.86-14.19-2.5-14.14-11.84,0-11.63.75-23.29,1.69-34.88,1.26-15.51,3.39-30.93,4.37-46.45.42-6.45-.95-13.13-1.87-19.63-1.34-9.53.17-12.64,8.15-15.43,2.55-.88,5.06-1.95,7.65-2.6,1.91-.48,4.7-1.49,5.76-.42,6.71,6.77,16.85,9.2,18.32,22.64,2.24,20.47,5.6,40.77,8.54,61.14a22.25,22.25,0,0,0,1.37,4Z"/><path d="M465.23,87.33c8.06,2,15.65,4,23.27,5.89,6.14,1.48,12.37,2.57,18.46,4.21A30.39,30.39,0,0,1,515,101.1c8.67,5.4,11.62,12.09-.63,20.58-4.75,3.29-8.48.37-11.93-1.65-13.54-7.92-29.06-7.6-45.45-12.84,1.12,6.68,1.71,11.45,2.73,16.12,1.85,8.43.4,12.25-6.23,13.87-11,2.69-17.41.52-19.06-8a87.15,87.15,0,0,1-2-13.77c-.48-14.86-.52-29.74-.92-44.61-.09-3.27-.28-6.85-1.62-9.73-5.92-12.71-2.84-24.73,3.84-35.5S450.43,7.68,463.42,5.7c6.5-1,13-2.56,19.53-2.52,7.89.06,13,5.46,13.32,13.19.69,14.9-1.55,29-11.31,41.18-6.41,8-12.08,16.6-18,25C466.26,83.53,466.08,84.9,465.23,87.33ZM456.12,58.8c7-1.47,6.3-7.81,8.47-11.68,3.26-5.81,7.08-12,5.07-19.81-9.59.54-12.24,8.88-17.47,13.81,1.5,3.28,3.19,5.82,3.8,8.61S456.12,55.46,456.12,58.8Z"/><path d="M4.26,104.39c-.81-8.06-1.22-16,1-24.09,1-3.7.4-7.76.53-11.66.25-7.74.5-15.48.79-24.29a20.55,20.55,0,0,1-4.34-3C1,40.06-.14,38.12,0,36.59c.88-8.4,11.1-18.42,20.65-19.11a21.45,21.45,0,0,0,12.46-4.72C41,6.5,51,5.17,60.43,2.51c3.66-1,7.93-.59,9.44,3.06s-.46,6.47-4.26,9c-10.36,7-20.25,14.59-30.22,22.07-1.45,1.08-3.18,2.73-3.32,4.24C31.3,48.83,31,56.79,30.53,64.74l1.95.58c1.2-1,2.85-1.78,3.54-3,4.58-8.13,14.24-9.17,22-12.76a6,6,0,0,1,8.26,7.25c-1.14,3.28-3.38,6.31-5.47,9.25C50.4,80.62,39.89,95.1,29.53,109.67c-.84,1.18-1,2.76-1.77,5.06a16.87,16.87,0,0,0,13.78-4.38c7.21-6.59,16.22-10.19,25.52-13.38,3.08-1.06,6.3-2.27,9.12.72s.83,6-1,8.2c-9.87,12.12-23,20.74-38.06,26.77C23,138.3,18.7,138.25,3.87,136.52Z"/><path d="M639.19,137.55c-1.87-.91-3.73-1.85-5.61-2.75-3.26-1.56-7-2.59-9.67-4.81s-6.07-6.16-3.41-9.43c5.37-6.59,3-14,3.71-21,1.53-15.15,2.4-30.37,3.37-45.57.16-2.58-.92-5.25-.74-7.83.2-3,1.16-6,2.18-10.81-.31-1.19-2.61-5-1.65-7.7,1.06-2.93,4.8-5.45,7.94-7,11.93-5.73,23.92-11.39,36.24-16.19,5.09-2,11-1.93,16.63-2.4a7,7,0,0,1,7.92,6.08c.72,3.89,1,8.16-3.63,10.36-3,1.42-6.07,2.62-9.06,4C675.91,26,668.33,29.4,661,33.23c-7.58,4-5.6,12.06-7,18.5-.94,4.36-.18,9.09-.18,14,1.28-.78,3.63-1.46,4.79-3,5-6.73,12.11-8.65,19.8-9.92,4.23-.7,8.85-1.24,10.24,3.28,1.13,3.67,1.06,8.87-.79,12.06a79,79,0,0,1-13.49,17.06,116.27,116.27,0,0,0-22.7,31c7.36,3.22,11.82-.71,16.42-3.57,6.1-3.8,11.12-9.44,18.71-10.64,1-.15,1.89-1.07,2.76-1,2.54.28,6.7.22,7.22,1.51a12.68,12.68,0,0,1,.06,9.23c-5.45,11.57-14.26,19.77-26.6,23.84-1.53.51-3,1-4.55,1.62Z"/><path d="M393.8,0c4.09,8.11,4,12.25-2.38,17.76-7.88,6.78-16.61,12.51-25.12,18.46-3,2.1-6.63,3.25-9.66,5.33-1.84,1.26-3.95,3.24-4.44,5.29a89.65,89.65,0,0,0-2.86,24.33c2.23-1.66,5.21-2.82,6.56-5C361.42,57,369.81,55.18,379.16,55c6-.09,9.84,3.76,7.95,9.49a38.34,38.34,0,0,1-7.62,13c-9.87,11.14-20.26,21.77-30.34,32.7-1.25,1.36-1.9,3.31-3.36,5.94a33.54,33.54,0,0,0,21.44-5.51c7.54-4.83,14-12,23.5-12.83,3.47-.32,7,0,10.34,0,2.17,7.57-2.66,11.28-5.64,14.56C375.77,134,351.9,143.1,323.3,136.22a20.82,20.82,0,0,1-2.85-.88c-11.58-4.54-12.57-8-5.72-18.82a19.8,19.8,0,0,0,2.88-7.44c2.72-18.38,5.35-36.78,7.65-55.22.35-2.76-.67-6-1.89-8.62-4.65-9.94,1.23-23,12-24.21,13.53-1.53,25.51-5.94,36.44-14.57C377.86,1.66,385.57,0,393.8,0Z"/><path d="M993.88,117.59c11.45-2.7,21-5.94,29.71-11.81,9.54-6.42,11.27-6.33,24.42-5,1.16,8.62-3.33,14.77-9.27,20-15.13,13.41-32.67,19-53.08,17.51-7.57-.55-14.24-1.2-20.27-6.05-6.92-5.56-7.24-6.86-1.55-13.41A28,28,0,0,1,967.2,116c-1-12.19-1.9-23.7-2.8-35.22a8.74,8.74,0,0,1,.05-3c3.53-12.37,1.95-24.83.85-37.3-.06-.61.37-1.25.75-2.47l7.32-3.81c-.38-3.34-2-7.12-.78-9.48,1.51-2.94,5-5.39,8.19-6.86,12.31-5.71,24.66-11.46,37.4-16.12,5.39-2,11.76-1.54,17.7-1.73,3.27-.1,7.1.35,8,4.38,1,4.28,1.12,9-2.94,11.86-3.2,2.26-7.09,3.56-10.72,5.19-10.23,4.6-20.56,9-30.64,13.87-2,.95-3.53,3.65-4.31,5.87-3,8.57-3.47,17.45-2.58,27,6.64-1.7,12.82-3.42,19.06-4.84,3.48-.79,7.37-2.15,9.84,2,2.23,3.73,1,7.92-4.29,11.83A188.64,188.64,0,0,1,999,88.86c-6.58,3.78-7.49,5.1-6.67,12.67C992.92,106.6,993.33,111.68,993.88,117.59Z"/><path d="M102,115.51c7.09-11.08,14.38-23.93,22.12-35.53,3.73-5.6,4.68-10.69,1.38-16.67-6.21-11.25-11-23.36-22.79-30.66-4.82-3-3.73-7.93,1.49-10.88a46.55,46.55,0,0,1,4.5-2.17c11.15-4.87,16.45-3.89,24.57,5.14,4.13,4.6,7.78,9.64,11.93,14.84,5-9.77,10.38-19.28,14.74-29.23a11.46,11.46,0,0,1,8.57-7.27c3.52-.88,7-1.86,10.55-2.7,5.39-1.28,8.91.69,9,6a20.84,20.84,0,0,1-3,10c-8.7,15.24-17.82,30.23-26.55,45.45a14.28,14.28,0,0,0-1.25,11.41q5.45,20.11,9.41,40.63c1,5.37.17,11.11.17,16.74-7.08,3.23-13.14,5.05-20.45,2.15l-1.31-3.17c-2.47-9.75-4.8-19-7.46-29.44-2,2.27-3.58,3.64-4.62,5.35-5,8.2-9.94,16.43-14.67,24.78-3.82,6.73-12.83,9-21,5C97.3,135.26,97.76,122.18,102,115.51Z"/><path d="M881.09,137.29c-4-1-10.87-2-17.25-4.59-19.09-7.64-22.13-21.44-18.62-37.91,5-23.44,11.94-46.27,24.55-66.64a127.32,127.32,0,0,0,6.79-12.95c2.25-4.81,5.19-8,10.7-7.87,2.27.07,4.57-.82,6.86-1.21,8.43-1.45,12.66,4,9.23,12.49-2.47,6.1-5,12.68-9.12,17.41-8.33,9.53-11.55,21.43-15.41,33-2.85,8.56-4.66,17.55-6.4,26.47-1.25,6.38-1.54,13,4.92,17,7,4.25,14.44,3.88,20.81-.57,5.72-4,10.75-9.39,15.33-14.9,3.67-4.4,7.45-8,12.86-9.29,8.92-2.19,14.34,3.73,11.8,13.06a25,25,0,0,1-3.17,6.6C922.77,126.54,905.71,136.15,881.09,137.29Z"/><path d="M574.3,50.77c0,21.26,0,42.52,0,63.78,0,12.36-3.63,18.07-11.94,19.37-6.8,1.06-12-2.88-12.51-10.95-.86-13.44-1-27-1.23-40.45-.32-17.21-.27-34.42-.81-51.61-.12-3.66-2.19-7.22-3.24-10.87-1.7-5.88.26-10.77,5.2-13a15.36,15.36,0,0,1,2.91-.75c19.83-4.58,19.56-1.43,20.93,17.78.63,8.84.11,17.8.11,26.71Z"/></g></g></svg>