<svg xmlns="http://www.w3.org/2000/svg" viewBox="0 0 48.03 38.61"><g id="Layer_2" data-name="Layer 2"><path style="fill:#098a49" d="M44.75,11.16C41.49,6.63,36.46,4,32,1.85,26.67-.69,20.27-.09,15.92.59A37.62,37.62,0,0,0,8.53,2.46,19.53,19.53,0,0,0,6,3.72,12.79,12.79,0,0,0,4.35,4.85l-.48.38c-.28.2-.39.33-.4.45a.27.27,0,0,0,.07.2c.13.17.31.23.77,0s.88-.44,1.34-.69a20.13,20.13,0,0,1,4.81-2A48.83,48.83,0,0,1,23.13,1.58h.6l.67,0,.24,0a19.22,19.22,0,0,1,6.66,1.6c7,3.23,11.07,6.72,13.36,11.3,2.72,5.45,1.7,10.14-3.13,14.34a36.17,36.17,0,0,1-3.83,3A26.16,26.16,0,0,1,26,36.28c-5.24.61-8.79.59-11.87-.09-3.8-.83-6.27-1.95-8-3.63a13.31,13.31,0,0,1-3.89-7.37c-.54-2.87.72-7,1.29-8.65A17.78,17.78,0,0,1,8.74,9c1.61-1.39,4.82-3.77,8.15-4.11,1.76-.19,4.33.41,4.55,2.3,0,.44.16.68.38.81l.1.06L22,8a2.65,2.65,0,0,0,.71-2.57,3.05,3.05,0,0,0-2.3-1.68A11.53,11.53,0,0,0,14.72,4,20.61,20.61,0,0,0,7.07,8.22C2.1,12.63.91,15.88.14,21.52c-.66,4.82,1,10.94,6.21,13.75a28,28,0,0,0,13.49,3.34A39.55,39.55,0,0,0,32.37,36.4a29,29,0,0,0,12.22-8.08,12.06,12.06,0,0,0,3.27-6.26C48.47,18.49,47.45,14.92,44.75,11.16Z"/><path d="M16.82,21.73c-2,.59-3.87,1.19-4.84-.48s2-4.17,3.24-5.77c1.62-2.12,3.91-5.65,6.14-5.17,2.68.59-4.63,6.77-5,8.29-.11.19-.08.49.2.36,4.08-1.86,7.07-.22,3.41,3.86-2.17,2.43-4.44,3.92-4.87,7.33.05.61-1.29,1.55-1.91,1.46a1.83,1.83,0,0,1-1.41-2.13C12.23,25.89,15.4,24.89,16.82,21.73Z"/><path d="M23.26,27.08c-2.12-4.91,8.28-17,9.26-16.81.78.17,2.09,1,1.73,2.09C29.09,17,25,24,26.92,26.31c.85,1,2.32.13,2.54-.25.35-.63,1.44-2.69,1.13-4s4.3-2.17,5.71-2.28c1.06-.19,1.36,1.69.45,2.08-1.46.9-2.51.33-3.14,2.07s-2.09,5.85-5.06,6.42C26.3,30.8,24.21,29.28,23.26,27.08Z"/></g></svg>