<svg xmlns="http://www.w3.org/2000/svg" viewBox="0 0 25.54 21.35"><g id="Layer_2" data-name="Layer 2"><path d="M5.07,11.46c-2,.59-3.87,1.19-4.84-.48s2-4.17,3.23-5.76C5.08,3.09,7.37-.44,9.6.05c2.68.58-4.62,6.76-5,8.29-.12.18-.09.48.19.35,4.09-1.86,7.08-.22,3.42,3.86C6,15,3.77,16.47,3.34,19.88c.05.61-1.29,1.55-1.91,1.46A1.83,1.83,0,0,1,0,19.21C.47,15.62,3.65,14.62,5.07,11.46Z"/><path d="M11.51,16.82C9.39,11.9,19.78-.21,20.76,0c.78.17,2.09,1,1.74,2.09-5.17,4.61-9.28,11.68-7.34,14,.86,1,2.33.13,2.54-.25.35-.63,1.44-2.69,1.14-4s4.3-2.17,5.71-2.28c1.06-.19,1.36,1.69.44,2.08-1.45.9-2.51.33-3.14,2.07s-2.08,5.85-5.06,6.42C14.54,20.53,12.45,19,11.51,16.82Z"/></g></svg>