<svg xmlns="http://www.w3.org/2000/svg" viewBox="0 0 37.9 39.55"><g id="Layer_2" data-name="Layer 2"><g id="Layer_1-2" data-name="Layer 1"><path style="fill:#098a49" d="M35.24,32a12.72,12.72,0,0,0,3.23-5.92c.85-3.56.41-7.32-1.36-11.5C35,9.68,31.42,6.34,27.87,3.41,24.16.36,19.37-.12,15.14,0A24.77,24.77,0,0,0,9,1a14.58,14.58,0,0,0-2.12,1A12.65,12.65,0,0,0,5,3.18c-.38.27-.33.36-.29.44s.1.23.5.06a19.18,19.18,0,0,1,5.23-1.95,30.78,30.78,0,0,1,10.84.08l.73.18a13.76,13.76,0,0,1,5.22,2.53c5.22,4.21,8.22,8.35,9.6,13.41,1.64,6,.33,10.73-4,14.44A29.69,29.69,0,0,1,29.45,35a17.59,17.59,0,0,1-9.86,3c-3.82-.05-6.91-.45-9.55-1.66-3-1.35-4.86-2.84-6.08-4.81a16.39,16.39,0,0,1-2.39-8.14c-.13-2.86,1.12-6.67,1.93-8.77a17.88,17.88,0,0,1,5-7.09c2.07-1.74,4.67-3.24,7-3.17,1.43,0,3.54,1,3.52,3.09,0,.41,0,.64.18.78A3,3,0,0,0,20,5.76a2.78,2.78,0,0,0-1.61-1.93,7.38,7.38,0,0,0-4.53-.49A14.67,14.67,0,0,0,7.31,6.66C3,10.39,1.66,13.5.43,19.32-.67,24.5.3,30.74,4,34.1c5.56,5.09,12.52,6.62,20.69,4.54A21.82,21.82,0,0,0,35.24,32Z"/><path d="M12.63,22.23c-2,.59-3.87,1.19-4.84-.48S9.81,17.58,11,16c1.62-2.13,3.91-5.66,6.14-5.17,2.68.58-4.63,6.76-5,8.29-.11.18-.08.48.2.35,4.08-1.86,7.07-.22,3.41,3.86-2.17,2.43-4.44,3.93-4.87,7.33C11,31.26,9.62,32.2,9,32.11A1.83,1.83,0,0,1,7.59,30C8,26.39,11.22,25.39,12.63,22.23Z"/><path d="M19.07,27.59c-2.12-4.92,8.28-17,9.26-16.82.78.17,2.09,1,1.73,2.09-5.16,4.61-9.27,11.68-7.33,14,.85,1,2.32.13,2.54-.25.35-.63,1.44-2.69,1.13-4s4.3-2.16,5.71-2.28c1.06-.19,1.36,1.69.45,2.08-1.46.91-2.51.33-3.14,2.07s-2.08,5.85-5.06,6.42C22.11,31.3,20,29.78,19.07,27.59Z"/></g></g></svg>