<svg xmlns="http://www.w3.org/2000/svg" viewBox="0 0 606.88 139.8"><defs><style>.cls-1{stroke:#000;stroke-miterlimit:10;stroke-width:3.86px;}</style></defs><g id="Layer_2" data-name="Layer 2"><g id="Layer_1-2" data-name="Layer 1"><path class="cls-1" d="M72.56,131.31c-3.49,3.47-9.87,5.22-15.65,5.63a38.9,38.9,0,0,1-26-7.38L21.1,121.1c-5.15-6.34-6.86-9.89-10.9-17.16-1.12-2-2.32-5.94-1.33-8.47,2.18-5.56,7.2-6.62,11.31-2.2,4.39,4.74,8.6,9.65,12.86,14.51a51.94,51.94,0,0,0,10.4,9c7.49,5,13.5,3.36,17.07-4.54,2.55-5.63,4.39-11.46,4-17.86A261.42,261.42,0,0,0,52.68,32.15a38.86,38.86,0,0,0-3.07-6.54c-1.76-3.27-4.2-4.15-8.35-4.34-9.2-.42-13.43-.93-22.72.15a19.69,19.69,0,0,1-14.6-4.19C-.32,14,2.78,5.91,7.78,4.44c2.79-.82,5.83-2,13.89-1.85,17.85.28,35.68,1.21,53.52,1.47C86,4.22,87,4.13,92,3.52,96.3,3,109.13,2,109.13,2c4.88,8,3.6,13.54-4.72,16.65C98.07,21,90.83,22,82.1,22.31c-1.88.06-3.76-.4-5.64-.22-2.57.24-3.24,1.67-2.51,3.89,5.5,16.84,8.66,34.22,12.59,51.44,3,13,1.37,30.12-2.12,37.9C82.38,119.84,76.1,127.79,72.56,131.31Z"/><path class="cls-1" d="M591.6,3.84c1.68.24,5.37,1.44,6.75,3.24,5,6.52,3.16,13-7.49,15.39-6.12,1.36-27.14,4.9-32.85,16-3.69,7.17,4.85,8.93,9.85,14.86,3.09,3.65,6.86,6.39,10.65,9.21,11.13,8.3,21,17.53,25.23,32.36,5.09,17.65-6.58,37.33-21.86,40.69-13.43,2.95-26.81,4-39.71-2.42a15.89,15.89,0,0,1-4.43-2.76c-2.39-2.46-3.75-5.71-2.56-9.14a6.79,6.79,0,0,1,7-4.5,42.39,42.39,0,0,1,9.42,1,33.49,33.49,0,0,0,12.88.44c4.87-.65,10.39-1.14,12.3-6.84,2.26-6.74,2.94-14-2.09-19.93-4.8-5.63-9.6-11.23-15.56-15.73-8.18-6.18-9.16-8.17-16.28-16-4.88-5.38-11.7-15.61-11.27-23,.35-6.09,6.19-16.92,13-22.69,4.5-3.79,15.14-6.34,20.32-7.35C569.36,5.74,588.57,3.4,591.6,3.84Z"/><path class="cls-1" d="M458.25,115.11c7.7,1.54,15.17-.12,22.52-2.26,8.67-2.52,13.13-6.06,20.07-10.33,1-.66,1.79-1.58,2.8-2.14,2.64-1.46,5.57-2.54,8.09-.21,2.36,2.19,2.51,5.37,1.67,8.52a30.94,30.94,0,0,1-8,13.94c-13.37,10.06-20.65,12.52-39.05,14.22-10.55,1-21.17-1.86-31.1-6.22-6.2-2.72-9.75-8.85-7.8-14.48,4.35-12.58,2.64-25.52,2.2-38.22-.33-9.75-.65-19.55-1.12-29.32a71.39,71.39,0,0,0-.45-7.33c-.78-5.35-3-10.66.84-15.83,5.34-7.18,10.08-15,19.66-16.58C461.05,6.79,473.5,4.42,486,2.23a16,16,0,0,1,4.31-.12c4,.41,8.5,4.72,8.93,8.7.51,4.71-2.12,7-5.86,9-9.65,5-20,7.63-30.29,10.4-9.85,2.65-10.1,2.87-9.9,13.49.09,5.21.21,10.42.6,15.61.35,4.79,1.77,5.76,6.17,4.54a19.89,19.89,0,0,0,7.66-4.11,22.09,22.09,0,0,1,9.32-4.58c6.26-1.55,11.11.37,14,5.73,2.64,4.87,1.58,9.73-3,14.73-10.7,11.59-20.11,14.94-29.93,27.32C457.69,103.26,458.25,113.76,458.25,115.11Z"/><path class="cls-1" d="M182.72,46.45c.18-10.37.61-20.74-.64-31.09-.74-6.07,2.42-10.46,8.17-12.73,4.27-1.68,8.87.11,11.84,5.1,2,3.39,3.88,6.87,4.2,11.2,2,26.69,1.7,53.35-2,79.8-1.66,12-6.44,22.77-14.93,31.18-2.16,2.14-4.34,4.24-7.22,5-13.36,3.51-26.36,3.53-37.73-6.35-5.88-5.11-8.44-12.67-10.07-20.4-6-28.37-6.7-57.28-7-86.21-.1-9.81,7.81-16.86,16.77-15.5,4.79.73,8.15,5.48,8.27,12.59.19,11.31,0,22.63.07,33.95.06,17.37,3.35,34.32,6,51.33.8,5.13,2.63,11.33,8.54,11.53s7.77-5.78,9.54-10.72c4.27-11.86,5.34-24.43,6.08-37C183.07,60.94,182.72,53.68,182.72,46.45Z"/><path class="cls-1" d="M304.74,97.3c2.66-41.17,13.71-68.36,36.48-88.49a28.19,28.19,0,0,1,13.37-6.63c5.52-1.1,11.07,3.55,12.13,9.9.79,4.81-.56,8.44-4.4,10.87C338.52,38,331,63.49,330.45,92.66c-.32,17.3,10.06,25.27,24.42,20.26a36.63,36.63,0,0,0,16.17-11,174.82,174.82,0,0,1,23.23-22.35c5.36-4.31,9.21-4.34,12.46-.5s3.81,9.54.25,14.68c-11,15.89-22.07,32-39.2,39.68-6.74,3-13.75,4.57-21,3a25.53,25.53,0,0,0-5.14-.63C320,135.68,303.12,115.05,304.74,97.3Z"/><path class="cls-1" d="M269.74,21.44c.21,3,.42,6.34.69,9.65,1.77,21.77,3.46,43.53,4.15,65.42.31,9.83,2.93,19.58,4.62,29.34,1.35,7.83-.1,10.34-6.87,11a48.15,48.15,0,0,1-6.9.09c-5.71-.26-8.26-2.39-10-8.83-3.6-13.41-4.67-27.33-5.62-41.23-1.22-17.87-2.07-35.77-3.43-53.62A40.22,40.22,0,0,0,242.89,19c-2-4.07-1.44-7.81,1.56-10.76,5.08-5,11.1-6.9,17.65-5.72,3.69.66,8.19,8.48,8.25,13.7A41.8,41.8,0,0,1,269.74,21.44Z"/></g></g></svg>