<svg xmlns="http://www.w3.org/2000/svg" viewBox="0 0 17.93 45.29"><g id="Layer_2" data-name="Layer 2"><path d="M0,32.55c.94-2.23,2.56-.88,3.77,0a14.85,14.85,0,0,0,3.3,2.31c1.06-3.63.71-8.5.65-11.93-.1-5.68-.63-11.36-1.18-17A13.21,13.21,0,0,0,5.67,1.7C6.24.39,6.58-.61,9.11.43c1.46,5.67.89,11.44,1.5,17.39s-.79,12,.33,18.18c3.16-1.62,2.76-5.9,6.12-6.6A2.81,2.81,0,0,1,17.45,33c-1.81,3.46-3.69,6.88-5.56,10.3a7,7,0,0,1-1,1.25,1.9,1.9,0,0,1-3.17-.25A38.18,38.18,0,0,1,5.54,40,21.52,21.52,0,0,0,0,32.55Z"/></g></svg>