<svg xmlns="http://www.w3.org/2000/svg" viewBox="0 0 654.86 141.59"><defs><style>.cls-1{stroke:#000;stroke-miterlimit:10;stroke-width:3.86px;}</style></defs><g id="Layer_2" data-name="Layer 2"><g id="Layer_1-2" data-name="Layer 1"><path class="cls-1" d="M513.55,2.73c1.12.65,4.77,2.23,5.17,5.16-.15,8.09-4.69,11.46-11,14.39-9.51,4.46-17.53,11.8-25.37,19-5.64,5.21-5.09,8.64.4,14.16s12.16,9,18,13.91c9.55,9.78,16,19.34,12,37-5.26,23.6-28,30.16-43.23,31.28-4.66.34-15.3-.51-19.45-3.4-1.76-1.22-3.47-2.67-3.1-5.33a5,5,0,0,1,4.11-4.44c3.74-.83,15-2,20.8-5.78,6.34-4.17,15.34-7.92,17.68-16.37,2.14-7.71-3.06-11.71-8.93-16.88-6.18-5.44-12.33-11-18.83-15.93-5.22-4-9.06-9.14-12.48-14.78S446,45.91,451,41.41C463.76,30,475.79,17.63,489.91,8.17a39.06,39.06,0,0,1,6.44-3.68C503.34,1.66,511.21,1.39,513.55,2.73Z"/><path class="cls-1" d="M423.62,4.22c1.31,1.51.93,1.86,1.28,3.82-.66,4.86-3.52,8.4-7.32,11C409,25,400.7,31.42,391.09,35.51c-7.06,3-10.93,7.54-10,16.11.68,6,.13,12.15.13,18.3,2.83.73,5.14-.69,7.46-1.94s4.72-2.52,7-4c3.61-2.29,7.65-3,10.58.16s1.37,7.54-.86,11c-4.32,6.65-9.23,12.75-16.31,16.45-4.71,2.46-8.62,5-5.9,11.75,1.28,3.22-.85,6.32-2.5,9.36-2.32,4.28-1,6,3.85,6,6.16.06,11.18-3.37,16.44-5.93s10.42-5.75,15.8-8.24c4.34-2,10.27-4.09,13.17,0,3.2,4.51-.73,9.47-3.88,13.77-18.32,19.39-46.65,23.62-66.25,18.71a25.67,25.67,0,0,1-8.14-5.3c-5.62-5.81-6.1-8.1-1.63-15s4.16-14.52,3.16-22.14c-.41-3.06-.8-5.82,0-8.95,3.51-12.87,2.18-26.16,2.69-39.28.11-2.88-1.33-5.08-3-7.39-3.91-5.41-3.27-8.24,2.51-11.71a60.72,60.72,0,0,1,10.43-5A211.73,211.73,0,0,0,392.59,10.2c4.87-2.57,9.49-5.88,15.4-6.31C408,3.89,421,1.24,423.62,4.22Z"/><path class="cls-1" d="M196.61,123.82c-.18,13.13-4,12.09-14.13,15.13-6.57,2-9.47-.13-10.12-7.47-1.09-12.46-1.68-18.6-2.79-31.06-.54-6.14-.9-6.37-6.64-4.92-1.15.29-2.25.75-3.38,1.11-15,4.84-16.68,7.06-17.58,23.87a36.2,36.2,0,0,1-2.08,11.26c-2.49,6.45-7.69,9-14.47,7.11C119,137.05,117.16,134,118,126c1.47-14.42,5.17-28.3,8.59-42.25,3.8-15.51,7.58-31,11.47-46.53a31.93,31.93,0,0,0,.45-11.41c-.74-7.1.91-10,6.86-12.79s11.9-5.6,18-8c7.88-3.08,11.15-1.88,15.78,5.53,7.34,11.72,10.72,24.94,11.85,38.91.49,6.1,1.09,12.14,2.83,18,.45,1.51,1.13,3.25.84,4.67-3.37,15.84.82,31.26,2,46.85C196.71,120.6,196.61,122.21,196.61,123.82Zm-34-82.34c-1.2,6.77-4.52,12.44-6.42,18.7-1,3.35-1.85,6.76-2.67,10.17-.4,1.65-.23,3.2,1.55,3.9,4,1.58,12.45-3.39,12.16-7.78C166.65,58.1,166.69,49.48,162.58,41.48Z"/><path class="cls-1" d="M252.44,84.91c0-14.78,0-29.55,0-44.32a44.39,44.39,0,0,0-.69-7.64c-.65-3.53-2.62-5.43-6.14-5.66-6.15-.4-12.28-1.58-18.43-1.61-5.1,0-9.12-2.33-13-5.3-4.19-3.23-4.44-7.86,0-10.92,7.39-5.11,12.32-7,23.7-5.51A87.35,87.35,0,0,0,257.6,4a47.28,47.28,0,0,1,15.13.74c3.53.75,6,2.42,9.23,2.38q19.88-.24,39.74-.63c3.82-.08,7.73-.58,11.31,1,2.94,1.3,6.19,3,5.95,7.4a8.27,8.27,0,0,1-5.73,7.74c-1.1.41-2.28.62-3.42.93-13.74,3.71-27.55,6.76-41.84,5.81a43.49,43.49,0,0,0-4.42-.12c-6.61.22-6.93.51-7,7.66-.1,12.83-.12,25.66-.17,38.49-.07,15.73-.13,25.87-.17,41.6A72.2,72.2,0,0,1,275,128.32c-1.18,6.17-4.56,9.18-10.12,10.26-7.79,1.52-12.06-1.57-12.31-10.19-.33-11.55-.21-19.4-.24-30.95,0-4.18,0-8.36,0-12.53Z"/><path class="cls-1" d="M556,2c12.68,2.87,25.11,2.1,37.41,2.8,9.29.53,19.19-1,28.58-1.42,11-.52,9.79-1.84,21.4-1.17,1.18.07,2.36,0,3.53.13,2.86.23,5.27,1.38,5.91,4.72.58,3-1.33,4.75-3.39,6.16-7.81,5.37-17,6.38-25.26,8.5-11.22,2.86-10.32,3.24-21.78,4.26C596,26.5,595.32,27,595.2,34c-.28,18-2.88,35.8-3.38,53.8-.23,8.53-2.72,28.85-4.64,37.24-2.45,10.64-10.67,12.5-17.67,12.68-5.59.14-8.24-4.41-7-10.5,5.36-25.79,7.37-63.77,7.54-90.13.07-10-1-10.94-10-11.2-3.24-.1-6.49-.11-9.71-.46a20,20,0,0,1-13.8-7.77c-3.25-4.08-2.47-9.14,2-11.17A55.07,55.07,0,0,1,556,2Z"/><path class="cls-1" d="M18,139c-4.19-.23-7.38-.73-10.39-2.15-5.53-2.6-6.3-4.55-5.27-10.83C6.11,102.66,9.26,79.27,10,55.58c.13-4.35.17-8.74.65-13.06.88-7.83.88-15.5-2.18-22.88-2-4.8-.45-8.59,3.3-11.39,3.36-2.5,6.81-4.85,11.13-5.33C31.09,2,36.08,6.53,35.37,15.33c-2.42,30-2.65,60.27-7.69,90.06-1.19,7.06-.36,8,6.25,5.66,17.17-6,35-8.16,52.77-10.48,5-.65,10-.61,14.6,2.22,6.27,3.9,6.39,11,.09,14.78a31.4,31.4,0,0,1-12.47,4.36c-21.33,2.53-42.69,5-62.48,14.82a29.83,29.83,0,0,1-5.9,1.88A13.91,13.91,0,0,1,18,139Z"/></g></g></svg>