<svg xmlns="http://www.w3.org/2000/svg" viewBox="0 0 2224.86 144.17"><defs><style>.cls-1{stroke:#000;stroke-miterlimit:10;stroke-width:3.86px;}</style></defs><g id="Layer_2" data-name="Layer 2"><g id="Layer_1-2" data-name="Layer 1"><path class="cls-1" d="M809.37,139.36c-17.23-.2-29.49-3.12-41-9.2-17.29-9.16-25.25-27.28-19.84-47.45,5.54-20.64,13.49-40.15,27.19-56.26,9.75-11.46,21.71-19,35-24.15C815.19.57,822.11,5.19,824,10.85c1.65,4.89.09,11.15-5.08,12-11.79,2-18.09,11.93-24.84,19.9-11.81,13.93-19.28,31.15-18.69,50.8.33,11.36,9.35,16.26,17.53,19.07,7.47,2.57,15.93,2.54,23.91,2.23,4.16-.17,8.27-3.29,12.3-5.33,3.45-1.74,6.58-4.34,10.14-5.65,3.25-1.21,7.64-2.19,9.37,2.18a18,18,0,0,1,.33,10.67c-2.25,7.78-8.5,11.58-14.77,15C825,136.81,815.4,140.17,809.37,139.36Z"/><path class="cls-1" d="M1504.25,8.69a8,8,0,0,1,4.68,6.81c-.39,4.18-3.47,5.5-6.39,7-10,5.28-20,10.74-30.11,15.77-3.15,1.56-4.54,3.77-4.44,7.47.15,5.33.23,10.65.47,16,.15,3.39,2,4.84,4.81,3.81a41,41,0,0,0,10.8-5.36c3.29-2.48,6.57-2,9.19.78s2.43,5.82-.25,9.75c-4.38,6.42-10.73,10.11-17.8,12.31-6.13,1.91-9.09,5.46-8.75,12.81.21,4.7-1.09,9.25-1.46,13.92-.53,6.86,1.54,8.66,7.89,7.77,11.55-1.62,21.61-7.17,32.69-10,3.3-.86,7.19-2.26,9.46,1.26,2.53,3.91,0,7.85-2.66,10.06-15.39,12.93-32.13,22.77-54.39,18.87a39.6,39.6,0,0,1-10.85-3.48c-5.27-2.63-7.26-6.24-5.86-11.76,2.35-9.22,2.38-19,3.88-28.49a16.78,16.78,0,0,0,.09-5.83c-2.27-11.22.61-21.5,1-32.22a64.5,64.5,0,0,0-1.74-16.81c-1.4-6.18.49-9.61,4.86-12.1,9.84-5.59,19-12.45,30-15.95a78.25,78.25,0,0,1,8.37-2.12C1491.69,8.41,1499.73,6.76,1504.25,8.69Z"/><path class="cls-1" d="M513.55,3.11c1.12.65,4.77,2.24,5.17,5.17-.15,8.08-4.69,11.45-11,14.39-9.51,4.46-17.53,11.79-25.37,19-5.64,5.22-5.09,8.64.4,14.16s12.16,9,18,13.91c9.55,9.78,16,19.34,12,37-5.26,23.6-28,30.16-43.23,31.28-4.66.35-15.3-.51-19.45-3.39-1.76-1.23-3.47-2.67-3.1-5.34a5,5,0,0,1,4.11-4.44c3.74-.83,15-2,20.8-5.78,6.34-4.17,15.34-7.92,17.68-16.37,2.14-7.71-3.06-11.71-8.93-16.88-6.18-5.43-12.33-11-18.83-15.93-5.22-4-9.06-9.14-12.48-14.78S446,46.3,451,41.79C463.76,30.4,475.79,18,489.91,8.55a39.06,39.06,0,0,1,6.44-3.68C503.34,2,511.21,1.77,513.55,3.11Z"/><path class="cls-1" d="M423.62,4.61c1.31,1.5.93,1.85,1.28,3.81-.66,4.86-3.52,8.4-7.32,11C409,25.37,400.7,31.8,391.09,35.89c-7.06,3-10.93,7.54-10,16.12.68,6,.13,12.14.13,18.3,2.83.72,5.14-.7,7.46-1.94s4.72-2.53,7-4c3.61-2.29,7.65-3.05,10.58.17s1.37,7.54-.86,11c-4.32,6.65-9.23,12.75-16.31,16.45-4.71,2.46-8.62,5-5.9,11.76,1.28,3.21-.85,6.31-2.5,9.35-2.32,4.28-1,6,3.85,6,6.16.07,11.18-3.36,16.44-5.93s10.42-5.75,15.8-8.24c4.34-2,10.27-4.08,13.17,0,3.2,4.52-.73,9.47-3.88,13.77-18.32,19.39-46.65,23.62-66.25,18.71a25.5,25.5,0,0,1-8.14-5.3c-5.62-5.8-6.1-8.09-1.63-15s4.16-14.52,3.16-22.14c-.41-3.06-.8-5.82,0-9,3.51-12.87,2.18-26.16,2.69-39.28.11-2.88-1.33-5.08-3-7.39-3.91-5.41-3.27-8.24,2.51-11.71a60.72,60.72,0,0,1,10.43-5,213.1,213.1,0,0,0,26.68-12.1C397.46,8,402.08,4.7,408,4.27,408,4.27,421,1.62,423.62,4.61Z"/><path class="cls-1" d="M196.61,124.2c-.18,13.14-4,12.09-14.13,15.13-6.57,2-9.47-.13-10.12-7.46-1.09-12.47-1.68-18.61-2.79-31.07-.54-6.14-.9-6.37-6.64-4.91-1.15.29-2.25.74-3.38,1.11-15,4.83-16.68,7-17.58,23.86a36.15,36.15,0,0,1-2.08,11.26c-2.49,6.45-7.69,9-14.47,7.11-6.45-1.8-8.26-4.86-7.44-12.85,1.47-14.41,5.17-28.3,8.59-42.24,3.8-15.52,7.58-31,11.47-46.53a32,32,0,0,0,.45-11.42c-.74-7.09.91-10,6.86-12.79s11.9-5.6,18-8c7.88-3.07,11.15-1.87,15.78,5.53,7.34,11.72,10.72,24.94,11.85,38.91.49,6.1,1.09,12.15,2.83,18,.45,1.51,1.13,3.25.84,4.66-3.37,15.84.82,31.26,2,46.85C196.71,121,196.61,122.59,196.61,124.2Zm-34-82.33c-1.2,6.76-4.52,12.43-6.42,18.7-1,3.34-1.85,6.76-2.67,10.17-.4,1.64-.23,3.19,1.55,3.89,4,1.58,12.45-3.39,12.16-7.78C166.65,58.48,166.69,49.86,162.58,41.87Z"/><path class="cls-1" d="M252.44,85.29c0-14.77,0-29.55,0-44.32a44.39,44.39,0,0,0-.69-7.64c-.65-3.53-2.62-5.43-6.14-5.66-6.15-.4-12.28-1.57-18.43-1.61-5.1,0-9.12-2.33-13-5.3-4.19-3.23-4.44-7.86,0-10.92,7.39-5.11,12.32-7,23.7-5.51a86.77,86.77,0,0,0,19.73,0,47.28,47.28,0,0,1,15.13.74c3.53.75,6,2.42,9.23,2.38q19.88-.23,39.74-.63c3.82-.08,7.73-.58,11.31,1,2.94,1.3,6.19,3,5.95,7.41A8.25,8.25,0,0,1,333.23,23c-1.1.41-2.28.62-3.42.93C316.07,27.6,302.26,30.65,288,29.7a43.49,43.49,0,0,0-4.42-.12c-6.61.22-6.93.51-7,7.66-.1,12.83-.12,25.66-.17,38.49-.07,15.74-.13,25.87-.17,41.6A72.07,72.07,0,0,1,275,128.7c-1.18,6.18-4.56,9.18-10.12,10.26-7.79,1.52-12.06-1.57-12.31-10.19-.33-11.55-.21-19.39-.24-31,0-4.18,0-8.36,0-12.53Z"/><path class="cls-1" d="M556,2.33c12.68,2.87,25.11,2.1,37.41,2.8,9.29.54,19.19-1,28.58-1.42,11-.51,9.79-1.84,21.4-1.16,1.18.06,2.36,0,3.53.12,2.86.23,5.27,1.38,5.91,4.72.58,3-1.33,4.75-3.39,6.16-7.81,5.37-17,6.38-25.26,8.5-11.22,2.86-10.32,3.24-21.78,4.26-6.37.57-7.07,1.1-7.19,8.11-.28,18-2.88,35.79-3.38,53.79-.23,8.53-2.72,28.85-4.64,37.24-2.45,10.65-10.67,12.51-17.67,12.68-5.59.14-8.24-4.41-7-10.5,5.36-25.79,7.37-63.76,7.54-90.13.07-10-1-10.94-10-11.2-3.24-.1-6.49-.11-9.71-.46a19.93,19.93,0,0,1-13.8-7.77c-3.25-4.08-2.47-9.13,2-11.17A55.07,55.07,0,0,1,556,2.33Z"/><path class="cls-1" d="M18,139.33c-4.19-.23-7.38-.73-10.39-2.15-5.53-2.59-6.3-4.55-5.27-10.83C6.11,103,9.26,79.65,10,56c.13-4.35.17-8.74.65-13.06.88-7.83.88-15.5-2.18-22.88-2-4.8-.45-8.59,3.3-11.39,3.36-2.5,6.81-4.85,11.13-5.33,8.23-.91,13.22,3.61,12.51,12.41C33,45.74,32.72,76,27.68,105.77c-1.19,7.06-.36,8,6.25,5.67,17.17-6,35-8.17,52.77-10.49,5-.65,10-.61,14.6,2.22,6.27,3.9,6.39,11,.09,14.78a31.4,31.4,0,0,1-12.47,4.36c-21.33,2.53-42.69,5-62.48,14.82a29.83,29.83,0,0,1-5.9,1.88A13,13,0,0,1,18,139.33Z"/><path class="cls-1" d="M1690.54,133.63c-3.49,3.47-9.87,5.22-15.66,5.62a38.87,38.87,0,0,1-26-7.37l-9.76-8.46c-5.16-6.34-6.86-9.89-10.9-17.16-1.13-2-2.32-5.94-1.33-8.47,2.18-5.56,7.2-6.62,11.31-2.2,4.39,4.74,8.59,9.65,12.86,14.51a51.94,51.94,0,0,0,10.4,9c7.48,4.94,13.5,3.36,17.07-4.54,2.54-5.63,4.39-11.46,4-17.86a261.42,261.42,0,0,0-11.83-62.19,40.48,40.48,0,0,0-3.07-6.54c-1.76-3.27-4.2-4.15-8.36-4.34-9.19-.42-13.42-.93-22.71.15a19.68,19.68,0,0,1-14.6-4.19c-4.27-3.28-1.16-11.32,3.83-12.79,2.79-.82,5.84-2,13.89-1.85,17.86.28,35.69,1.21,53.53,1.47,10.81.16,11.81.07,16.84-.54,4.27-.52,17.1-1.5,17.1-1.5,4.88,8,3.6,13.54-4.73,16.64-6.33,2.33-13.57,3.37-22.3,3.65-1.88.06-3.76-.4-5.64-.22-2.57.24-3.24,1.67-2.52,3.89,5.51,16.84,8.66,34.22,12.6,51.44,3,13,1.36,30.12-2.13,37.89C1700.36,122.16,1694.08,130.11,1690.54,133.63Z"/><path class="cls-1" d="M2209.58,6.16c1.68.24,5.36,1.44,6.74,3.24,5,6.52,3.17,13-7.48,15.38-6.13,1.37-27.15,4.91-32.85,16-3.7,7.17,4.84,8.93,9.85,14.86,3.08,3.65,6.86,6.39,10.64,9.21,11.13,8.3,21,17.52,25.24,32.36,5.09,17.64-6.58,37.33-21.86,40.69-13.43,2.95-26.81,4-39.72-2.42a15.83,15.83,0,0,1-4.42-2.76c-2.39-2.46-3.75-5.71-2.56-9.14,1.07-3.11,3.86-4.57,7-4.5a42.39,42.39,0,0,1,9.42,1,33.44,33.44,0,0,0,12.87.44c4.88-.65,10.4-1.14,12.31-6.84,2.26-6.74,2.94-14-2.1-19.93-4.79-5.63-9.59-11.23-15.55-15.73-8.18-6.18-9.16-8.17-16.28-16-4.88-5.38-11.7-15.61-11.27-23,.35-6.09,6.18-16.92,13-22.69,4.5-3.79,15.13-6.34,20.32-7.35C2187.34,8.06,2206.55,5.72,2209.58,6.16Z"/><path class="cls-1" d="M2076.23,117.43c7.7,1.54,15.16-.12,22.51-2.26,8.68-2.52,13.13-6.06,20.07-10.33,1-.66,1.79-1.58,2.8-2.14,2.65-1.46,5.58-2.54,8.09-.21s2.52,5.37,1.68,8.52a31,31,0,0,1-8,13.94c-13.37,10.06-20.65,12.51-39.06,14.22-10.55,1-21.17-1.86-31.1-6.22-6.2-2.72-9.75-8.85-7.8-14.48,4.36-12.58,2.64-25.52,2.21-38.22-.33-9.75-.65-19.55-1.12-29.32-.12-2.45-.1-4.92-.45-7.33-.78-5.35-3-10.67.84-15.83,5.34-7.19,10.07-15,19.65-16.58C2079,9.1,2091.48,6.74,2104,4.55a16.38,16.38,0,0,1,4.31-.13c4,.42,8.49,4.73,8.92,8.71.51,4.71-2.11,7-5.85,9-9.66,5-20,7.63-30.3,10.4-9.84,2.65-10.1,2.87-9.9,13.49.1,5.21.22,10.42.6,15.61.36,4.79,1.77,5.76,6.17,4.54a19.93,19.93,0,0,0,7.67-4.11,22,22,0,0,1,9.32-4.58c6.25-1.55,11.1.37,14,5.73,2.64,4.87,1.58,9.73-3,14.73-10.69,11.59-20.1,14.94-29.93,27.32C2075.66,105.58,2076.23,116.08,2076.23,117.43Z"/><path class="cls-1" d="M1800.7,48.77c.17-10.37.61-20.74-.65-31.09-.73-6.07,2.43-10.46,8.18-12.73,4.27-1.68,8.86.11,11.83,5.1,2,3.39,3.89,6.87,4.21,11.2,2,26.69,1.69,53.35-2,79.8-1.66,12-6.44,22.77-14.94,31.18-2.16,2.14-4.33,4.24-7.21,5-13.36,3.51-26.36,3.53-37.73-6.35-5.89-5.11-8.44-12.67-10.07-20.4-6-28.37-6.71-57.29-7-86.21-.1-9.81,7.81-16.86,16.76-15.5,4.8.73,8.16,5.48,8.28,12.59.19,11.31,0,22.63.07,33.95,0,17.37,3.35,34.32,6,51.33.79,5.13,2.62,11.33,8.54,11.53s7.76-5.78,9.54-10.73c4.26-11.85,5.34-24.42,6.08-37C1801.05,63.26,1800.7,56,1800.7,48.77Z"/><path class="cls-1" d="M1922.72,99.62c2.66-41.17,13.71-68.36,36.48-88.49a28.19,28.19,0,0,1,13.37-6.63c5.52-1.1,11.07,3.55,12.12,9.9.8,4.81-.55,8.44-4.39,10.87C1956.5,40.33,1949,65.81,1948.43,95c-.33,17.3,10.06,25.27,24.42,20.26a36.63,36.63,0,0,0,16.17-11,174.12,174.12,0,0,1,23.22-22.35c5.36-4.32,9.22-4.34,12.47-.5s3.81,9.54.25,14.68c-11,15.89-22.07,31.95-39.2,39.68-6.75,3-13.75,4.57-21,3a25.62,25.62,0,0,0-5.14-.63C1937.94,138,1921.1,117.37,1922.72,99.62Z"/><path class="cls-1" d="M1887.72,23.75c.21,3,.42,6.35.69,9.66,1.77,21.77,3.46,43.53,4.15,65.42.3,9.83,2.93,19.58,4.62,29.34,1.35,7.83-.1,10.34-6.88,11a48.13,48.13,0,0,1-6.9.09c-5.71-.26-8.25-2.39-10-8.83-3.6-13.41-4.67-27.33-5.62-41.24-1.22-17.86-2.07-35.76-3.44-53.61a39.8,39.8,0,0,0-3.5-14.31c-2-4.07-1.44-7.81,1.57-10.76,5.08-5,11.1-6.9,17.64-5.73,3.7.67,8.19,8.49,8.25,13.71A41.52,41.52,0,0,1,1887.72,23.75Z"/><path class="cls-1" d="M1000.26,65.18a25.23,25.23,0,0,0,14.57-7.31c4.11-3.85,9.25-6.08,14.27-8.5,4.86-2.35,7.47-1.8,10.57,1.46,2.93,3.09,3.35,7.19.25,10.64a91.71,91.71,0,0,1-11.38,10.71,57.88,57.88,0,0,0-15.88,18.29c-2.61,4.91-7,8.87-9.09,14.15-1.74,4.49-5.53,10-2.25,13.7,3.46,3.91,8.61,1.16,13.47,0,4.63-1.1,13.23-3,21-6.28,5.11-2.19,13.09-4.54,19-7.47a5,5,0,0,1,5.86.5c2.09,1.76-1.32,9.79-1.86,11.62-1.11,3.76-11.17,8.1-14.58,10-5.87,3.24-7.31,4.68-19,8.31-11.51,3.57-13.41,3-26.8,3.52-7.69.27-15.59-.81-22.53-5.39-2.4-1.59-3.23-3-2.76-5.36.34-1.66.42-3.5,1.28-4.89,6.07-9.7,4.42-20.74,4.66-31.23.34-15,.19-30.09-1.65-45.15a20.76,20.76,0,0,0-2.76-9c-4.07-6.59-2.48-12.68,5.16-14.57C995,19.13,1008.35,11.59,1023.08,7A32.85,32.85,0,0,1,1037,5.41c5.27.61,8,2.75,8.24,6.45.31,4.3-1.16,6.16-6.54,7.59A148.56,148.56,0,0,0,1004,33.61c-3.83,2.15-5,5-5.22,8.92C998.47,49.86,1001.6,57,1000.26,65.18Z"/><path class="cls-1" d="M896.6,107.35c-1.91,6.23-1.12,11.39-1.08,16.46.06,8.18-2.93,12.48-9.31,12.77-7,.32-11.7-3.86-12.07-11.48-.43-8.57-.77-17.2-.35-25.76,1.05-21.5,2-43-1.53-64.32-.63-3.83.35-7.83-1.72-11.58-1.25-2.25.51-4.45,2.22-5.87,13.71-11.4,28.7-18.54,46.17-13,9.71,3.08,16,10.81,17.77,22.07,2.41,15.13-2,28.41-10.17,40.26C922.14,73.24,918.07,80,912.15,85c-3.15,2.68-1.25,4.73,1.26,6.63,10.78,8.18,21.37,16.65,32.26,24.62,5.12,3.74,3.14,1.37,7.11,6.34,4.27,5.34,4.44,8.75,1.29,13.92-2.89,4.72-8.1,6.81-13.14,5.14a16.07,16.07,0,0,1-7.17-5.13C921.51,122,911.62,120,896.6,107.35Zm17.61-65.61c0-2.85.08-5.7,0-8.56a10.91,10.91,0,0,0-4.54-8.59c-3.46-2.76-7.36-2.61-11.16-.72a6,6,0,0,0-3.5,6.08c.59,12.82,1.08,25.64,1.61,38.46.05,1.14.06,2.37,1.05,3,1.46,1,2.63-.14,3.38-1.21C907.11,61.67,913.47,53.25,914.21,41.74Z"/><path class="cls-1" d="M1086.79,47.75a211.17,211.17,0,0,0-.8-24.87c-.23-3.06,1.47-5.17,3.72-7,6.45-5.3,13.85-9,21.22-12.75,4.2-2.14,7.93-1,11.47,1.91,8.58,7.11,14.28,16.19,18,26.56a84.57,84.57,0,0,1,4.47,16.89c.58,4.35.89,5.86,4.7,10a8.62,8.62,0,0,1,1.16,9.58c-2.43,4.51-2,7.22-1.28,12a183,183,0,0,1,1.11,40.71c-.53,7-1.49,9.44-7.34,14.25a17.16,17.16,0,0,1-3.26,2.52c-3,1.38-6.5,2.89-9.46,1.37s-2.18-5.43-2.07-8.39c.19-5.27.36-6.15.5-9.31a175.55,175.55,0,0,0-2.22-37.79c-.69-4.23-2.65-6.06-6.64-5.26-13.28,2.65-12-2-13.54,12.28-1.37,12.39-4.31,24.53-5.55,37-.9,9-10.17,13.78-18.56,10.28a5.74,5.74,0,0,1-3.72-5.9c.06-3.89-.33-7.92.56-11.62,3.26-13.54,4.65-27.33,6.16-41.11C1086.23,71.32,1086.45,56.09,1086.79,47.75Zm25-18q-.29,12.18-.56,24.36a2.76,2.76,0,0,0,.08.81c.67,2.64,5.29,5.36,8.54,4.8,4.27-.74,2.87-3.85,2.36-6.46C1120.56,44.83,1118,36.81,1111.77,29.7Z"/><path class="cls-1" d="M1384,99.68c5-15.13,7.34-30.71,11.2-45.86q3.69-14.51,8.18-28.75c2.45-7.83,7.24-13.19,15.06-14.73,5.45-1.07,8.71,2,7.94,8a48.74,48.74,0,0,1-1.76,6.6c-6.11,21.93-12,43.9-16.2,66.42a198.34,198.34,0,0,1-11.88,39c-3,7.22-8,9.09-14.54,9.17s-10.24-3.35-12.83-9.35a115.9,115.9,0,0,1-7.27-22.69c-4.72-22.92-9.1-45.94-15-68.54a128.7,128.7,0,0,0-7.69-20.71c-2.46-5.4-2-6.73,2.62-9.75a50.4,50.4,0,0,1,5.65-3c6.93-3.35,10.59-2,13.89,5.64s5.33,16.21,7.26,24.53c3.86,16.69,7.39,33.47,11,50.24C1380.53,90.59,1381.56,95.29,1384,99.68Z"/><path class="cls-1" d="M1202.59,127.12c1.67-27.46,3.14-55.3,2.84-83.25,0-2,.06-4.09,0-6.12-.29-5.95-1.25-7.15-6.39-7.8-6.51-.81-13-1.45-19.54-2.3-6-.78-12-1.76-17.45-4.92-5.83-3.4-5.81-8.79-.12-12.57a28.29,28.29,0,0,1,21.56-3.92c2.79.59,5.6,1.61,8.48,1.85a27.66,27.66,0,0,0,13-2.38,23.87,23.87,0,0,1,8.67-1.56c4,0,8.24.91,10,1.92,2.52,1.4,11.52,2.46,15.13,2.56,12.26.34,20.72-1.63,32.65-3.46a37.24,37.24,0,0,1,5.46-.61,5.7,5.7,0,0,1,6,4.54,7,7,0,0,1-2.51,7.67c-3.64,3-8,4.43-12.23,5.87-6.27,2.11-12.61,3.92-18.88,6-3.33,1.12-6.73,1.15-10.13,1.18a26.65,26.65,0,0,0-8.56,1.2c-2.75.94-3.47,2.73-3.55,5.8-.6,25,.43,50-1.83,74.9-.45,4.92-1.19,9.8-1.84,14.7a18.13,18.13,0,0,1-3.33,7.82c-3.66,5.4-6.78,6.46-12.23,4.3C1203.17,136.71,1202.12,135,1202.59,127.12Z"/><path class="cls-1" d="M1296.09,119.56c-1.14-11.69.38-23.8.09-36-.5-21.29,2-42.49-.66-63.87-1.09-8.89,10.47-19.67,16.8-16.1,3.91,2.21,5,6.87,5.45,11.75a229.06,229.06,0,0,1,.22,32.4c-.36,6.74-1.1,13.43-.45,20.24,1.41,14.59-.94,29-.26,43.55.18,4,.22,8.12.22,12.17,0,5.35-1.27,10-4.73,13.13-7.78,7.1-15.12,2.75-16.3-9.65C1296.24,124.85,1296.23,122.47,1296.09,119.56Z"/></g></g></svg>