<svg xmlns="http://www.w3.org/2000/svg" viewBox="0 0 650.58 11.16"><defs><style>.cls-1{fill:#098a49;}</style></defs><g id="Layer_2" data-name="Layer 2"><g id="Layer_1-2" data-name="Layer 1"><path class="cls-1" d="M6.78.93C34.72,3.52,61.32,3.36,90.26,2c4.63-.39,9.32,0,14-.09,21.91-.62,31.56,1,54,.71,9.91-.53,28.87.21,37.48-.23,21.9-1.1,43.87-1.18,65.75-2,28-1.06,55.9.78,83.85-.1,11.54-.37,23.23,1.19,34.88,1.06,26.55-.28,53.09-.83,79.64-1,14.89-.11,28.46.27,44.68,1.25a102.16,102.16,0,0,0,20.84.18c19.91-1.26,39.89-.15,59.84-1,13-.55,23.32.67,39.61,1.32,6.08.23,11.91-.74,17.81-1.64C645.2,0,648-.83,649.73,2.14c1.59,2.7.84,5-1.26,7.2a11.27,11.27,0,0,1-9.17.45c-6.32-2.17-10-2.22-15.92-2.31-19.32-.29-38.67-1.36-58-.77-16.63.5-33.24,1-49.87.51-10.95-.31-24.81-1.16-35.71-1.16-12.38-.57-22.23.17-34.87.1-27.91-.14-55.83,1-83.75.19-21.31-.59-42.65-1.49-63.93-.92-23.29.62-46.61-.47-69.8.75S181.1,6.5,157.76,7.7c-18.28.3-35-.21-52.63-.1-14.35.1-28.38.69-42.61,1.57-16.57,1-33.11.7-49.67,1.93A23.86,23.86,0,0,1,5,10.31C1.93,9.48-.81,7.56.22,3.9,1.06,1,3.92.38,6.78.93Z"/></g></g></svg>