<svg xmlns="http://www.w3.org/2000/svg" viewBox="0 0 392.09 11.7"><defs><style>.cls-1{fill:#098a49;}</style></defs><g id="Layer_2" data-name="Layer 2"><g id="Layer_1-2" data-name="Layer 1"><path class="cls-1" d="M203.3,1.74c19.43-.65,45.5-1.87,71.72-.8,20.56.84,41.17,1.1,61.78.39,8.28-.29,16.61.63,24.92,1,3.65.19,7.38.94,10.86-.61,8.2-3.66,13.05,2.61,18.64,6.32,1.6,1.06.89,3.39-1.2,3.53a26.8,26.8,0,0,1-8.9-.68c-7.8-2.2-15.64-2-23.64-2.28-15-.54-30-1.12-44.87-.8-18.31.4-36.49-.42-54.76-.56s-36.38.88-54.61.34c-25.21-.75-50.41-.78-75.69-1-12.13-.14-22.07-.78-33.87-1C73.7,5.21,54,6.82,34.08,8.05A195.19,195.19,0,0,0,9.5,10.82c-3.25.62-5.92.37-8.06-2.31C.36,7.16-.4,5.62.23,3.92S2.66,1.76,4.36,1.81C25.37,2.48,46,.87,66.9.12c8.3-.29,5.53,0,24.88.1C126.7.34,161.55,0,203.3,1.74Z"/></g></g></svg>