<svg xmlns="http://www.w3.org/2000/svg" viewBox="0 0 308.45 13.97"><defs><style>.cls-1{fill:#2c2ebf;}</style></defs><g id="Layer_2" data-name="Layer 2"><g id="Layer_1-2" data-name="Layer 1"><path class="cls-1" d="M31.19,13.3C20.94,12.8,13,12.54,5.25,10,2.1,9-.71,7.59.16,4c1-4.18,4.53-4.62,8-3.27C25.48,7.45,43.49,5,61.3,4.47c8.62-.24,17.26-.24,25.89-.63,21.23-.95,42.51-.66,63.76-1.11,20.9-.44,41.8-1.22,62.7-1.73,4.65-.12,9.31.3,14,.43,23.26.67,46.54-.07,69.79,1.24a31.44,31.44,0,0,1,7.76,1.24c2.74.85,3.63,2.65,3.18,5.33-.5,3-2,5.1-5.28,4.66a101.57,101.57,0,0,1-11.73-2.26c-13-3.39-26.31-2.59-39.55-2.47-3.65,0-7.32.08-11-.14-16.27-1-32.55.86-48.78.25-12.32-.46-24.48,1.07-36.75,1.12-28.86.1-57.72-.13-86.57,2.33C55.6,13.85,42.19,14.56,31.19,13.3Z"/></g></g></svg>