<svg xmlns="http://www.w3.org/2000/svg" viewBox="0 0 463.53 13.63"><defs><style>.cls-1{fill:#098a49;}</style></defs><g id="Layer_2" data-name="Layer 2"><g id="Layer_1-2" data-name="Layer 1"><path class="cls-1" d="M67.13,11.68c-20,.15-39.15-1.15-58.57-1.89C3.12,9.58-.72,8,.11,3.73c.78-4,5.16-4,9.67-3.53A721.82,721.82,0,0,0,116.69,3.43C171.13,3,226.07,1.94,280.72,2c39.34,0,78.73,2,118.15,2.35,17,.16,33.88-3.66,50.81-1.79,4.62.51,9.14,1.4,12.18,4.26,1.83,1.72,2.28,3.74.75,5.61-1.42,1.71-3.68,1.19-6.11.87-30-3.15-80.82-1-111.66-2.89-44.75.18-68.39-2.59-113.24-1.34-18.9.53-37.9,1.74-56.71.92-18.61-.81-36.82,1.64-55.34,1.32C102,11,85.08,12,67.13,11.68Z"/></g></g></svg>