<svg xmlns="http://www.w3.org/2000/svg" viewBox="0 0 1231.59 172.3"><g id="Layer_2" data-name="Layer 2"><g id="Layer_1-2" data-name="Layer 1"><path d="M1198.55,154.14c-3.26,0-9.93-1.63-12.67-6.23-8.88-14.95-12.69-31.55-18.27-49.75-4.4,10-5.07,18.86-7.88,27.17-1.38,4.1-2.28,8.35-3.36,12.53-2.1,8.1-8.08,12.2-16.33,13.59s-11.64-1.33-10.36-9.09c1.41-8.53,3.57-16.94,5.49-25.39,4.36-19.17,9.51-38.22,8.92-58.08-.18-6.08-1.82-11.21-3.14-17.35-2.68-12.41,1.17-19.26,11.92-20.74,12.94-1.78,22.84,5.1,27,18,6.67,20.61,13.41,41.21,17.38,62.51,1,5.42,3.26,10.64,5.43,17.53,4.28-15.81,2.44-30.16,2.61-44.39.15-13.32-.37-26.65.07-40,.25-7.86,6.37-11.31,13.79-8.72,1.32.46,10.44.34,11.1,1.67,1.41,2.81.81,17.56.7,26.86s.57,18.51.61,27.87c.1,21.37,0,46.69-5.89,63.44C1222.11,155.72,1207.76,154.06,1198.55,154.14Z"/><path d="M247.15,103a24.71,24.71,0,0,0,4.58-8.53q8.46-23.36,16.93-46.7A54,54,0,0,1,280,28.57a25.07,25.07,0,0,1,13.16-7.22c8-1.79,11.69.36,12.89,7.47,1.09,6.47.6,13,0,19.45-1.5,16.55-3.48,33.07-5.43,49.59-1.7,14.47-3.38,28.91,1.52,43.21a14.66,14.66,0,0,1,.54,4.63c0,3.33.5,7.07-3.58,8.87-4.86,2.14-11.89.57-15.18-3-4.26-4.66-5.58-10.36-5.88-16.06-.6-11.66-1.89-22.42-.15-34.11,1.64-11,3.36-24,5.57-36.19-2.08,2.21-3.17,6.75-3.88,8.58C274.54,87,271,97.74,265.85,111a35.36,35.36,0,0,1-6.2,9.79c-6.48,7.27-12.52,10.37-21.58,10.59-6.55.16-9.65-2.65-11.63-8.62A34.14,34.14,0,0,1,225,110.39c.64-15.72-1.92-31.32-2-47a371.89,371.89,0,0,1-9.83,52.14c-2.88,11.1-6.93,21.94-9.18,33.21-1.15,5.77-12.3,9.84-18.3,7.25-2.71-1.17-2.65-3.26-2.27-5.33-.19-6.17,2.28-12.62,3.43-19.05,1.5-8.45,5.93-18.82,7.34-27.83,3.24-20.77,9.58-40,4.93-61.12-2.09-9.51,6.14-13.28,14.28-14.08a42.22,42.22,0,0,0,12.38-2.88c9.05-3.7,14.26-.86,16,8.08a214.92,214.92,0,0,1,3.46,43.45C245.15,85.49,246.45,93.62,247.15,103Z"/><path d="M965.39,82.63a92.89,92.89,0,0,0-8.3,22.34,67.39,67.39,0,0,1-4.32,13.21c-4,8.54-10.17,12.23-18.06,11.49-9.11-.87-16.08-4.32-18.76-14A67,67,0,0,1,913.37,101a171.36,171.36,0,0,0-3.55-28.61c-3.89,18.86-6.87,35.72-9.14,52.73-1.06,7.9-1.13,6.83-1.68,14.77-.79,11.4-8,18.67-21.59,13.24-4.53-1.81-6.26-4.51-5.72-9.18.91-7.92.87-6.92,2.11-14.79,2.38-15.19,2.27-30.4,1.22-45.69-.49-7-1.35-13.77-4.91-20.19-3.25-5.86-1.67-10,3.95-13.32a8.42,8.42,0,0,1,2.73-1.25c10.27-1.7,17.35-7,21.94-16.5,3.14-6.55,10.87-7.48,17.35-8.66,5.17-.94,7.59,3.46,9.11,7.76,5,14.2,9.06,28.61,10.78,43.58.29,2.47-.38,5.31,2.48,7.92,2.76-7.77,5.69-15,7.89-22.55,2.25-7.71,5.67-14.88,9.16-22A22.18,22.18,0,0,1,966.1,28c9.92-4.91,16.7-2.25,20.42,8.24a58.77,58.77,0,0,1,3.4,18.6,466.06,466.06,0,0,0,4.42,54.67c.55,4,2.68,19,4.3,22.76,3.24,7.54,1.54,13.71-3.89,16.5-6.12,3.15-15.64.45-19.24-6.2-4.66-8.6-8.38-29.25-9.12-38.95C965.86,96.7,965.05,89.77,965.39,82.63Z"/><path d="M163.8,86c.89,13,1.21,25.93.88,38.9-.14,5.2-1,10.16-4.24,14.75-2.29,3.29-5.58,4.53-9.47,4.69-4.92.2-6.14-1-6.22-5.61-.19-11-.32-22-.49-33a44.05,44.05,0,0,0-.32-5.14c-.64-4.55-1.5-5.13-6.32-3.54A47.76,47.76,0,0,1,124,99.86c-3.54.1-5.64,1.84-6.54,4.7-4.18,13.16-9.44,26.1-10.12,40-.27,5.5-1.4,6.93-7.54,7.87-4.43.67-9.35,2.39-12.89-2-.93-1.14-1.61-2-1.12-3.86C91.64,124.4,99.38,102.7,104,80.31c2.37-11.56,5.42-23,8.2-34.49.28-1.19.44-2.62,1.26-3.46,6.52-6.57,12.8-13.55,21.84-17.48,7.67-3.33,12.29-1.5,15.89,5.46C157.65,42.9,162,56,162.66,69.88,162.94,75.27,163.41,80.64,163.8,86ZM135,50.77c-2.05,3.83-4.32,7.2-5.8,10.81a157,157,0,0,0-5.46,16.86c-.53,1.86-.56,4,2,5.09,4.86,2.11,16.23-3,16.37-7.59A43.23,43.23,0,0,0,135,50.77Z"/><path d="M1023.5,144.11c1.29-13.71,5.3-25.14,8-36.81,3.63-15.48,7.4-30.94,10.65-46.49,1-4.63.45-9.53.52-14.3.11-7.25.63-8.52,7.71-10.74,6.24-2,12.07-4.21,16.91-8.48,1.55-1.38,4-2.06,6.09-2.75,9.36-3,15.36-.6,18.09,8.13,3.32,10.62,6.13,21.39,8.69,32.19,1,4-.06,5.41,2.67,9.61,2,3.06,3.79,4.13,2,9.06-2.68,7.29-1.45,10.08-.92,16.24,1,11,1.77,22.08.9,33.13s-8.17,16.9-20,16.6c-6-.15-7.67-1.94-6.3-7.26,3.44-13.36,1.23-26.69-.11-40-.28-2.75-2.15-3.36-4.83-3.06-4.94.55-9.5,2.23-14.11,3.76-2.44.81-3.16,2.73-3.88,4.82-3.76,10.84-6.89,21.8-7.67,33.22s-7,14.7-18.37,10.49C1024.67,149.66,1023.1,146.76,1023.5,144.11ZM1063,79c8.8-1.12,12.41-2.49,11.8-5.13-1.49-6.44-.9-13.41-5.71-19.45C1067.64,62.58,1062.26,69.69,1063,79Z"/><path d="M782.34,53.88c0,5.32-.05,10.65,0,16,0,3.72,2.25,5.42,6.09,5.28a91,91,0,0,0,19.74-3.39c3.85-1,4.74-3.65,4.6-6.9-.44-10.6,1.61-16.81-1.57-27.32-1.57-5.2-.9-10,4.88-12.87,6.23-3.08,12.84-4.26,19.2-1,4,2,5.21,5.8,4.51,10.34-1.63,10.59-.51,16.81-.77,27.45-.11,4.88-.61,7.82,2.18,12.51,2.42,4.08,1.69,5.89.57,10.14-1.94,7.31-2.26,10.05-2,15.88.36,9.94.81,19.92,2,29.79.92,7.6-2.09,12.75-8.34,17-7.57,5.21-13.71,3.48-15.37-5-1.4-7.18-2.15-14.49-2.93-21.76-.74-6.95-1.28-13.92-1.66-20.89-.23-4.33-2-6.28-6.66-4.72-5.42,1.81-11.11,1.7-16.72,2.35-8.51,1-10.47,2.73-10.31,10.91.22,11.37-1.7,22.56-2.32,33.85-.45,8.13-3.2,11.84-8.25,11.94-7.57.15-15.58-6.26-15.63-13.22-.08-9.31.3-18.63.85-27.93,1-16.26,2.38-32.49,3.22-48.76.38-7.34-1.62-18.23-3.7-25.29-2.23-7.58-.72-10.52,7-12.65a38.14,38.14,0,0,1,9.38-1.4c7.44-.15,11.22,3,11.7,10,.36,5.31.07,14.37.07,19.7Z"/><path d="M553.27,110.51a176.51,176.51,0,0,1,10-59.91c5.32-15.55,26-30.07,48.15-25.61a10.45,10.45,0,0,1,6.69,4.69,82.4,82.4,0,0,1,13.49,32.7c4.38,23.1,3,45.05-7,66.87-8.16,17.84-33.8,27.22-52.15,19.05-13.11-5.84-20.3-14.65-19.21-29.35C553.45,116.15,553.27,113.33,553.27,110.51Zm52.85-31.75a149,149,0,0,0-3-29.12c-1.29-6-4-6.65-8.93-3.11a22.21,22.21,0,0,0-7.57,9.92c-2.91,6.92-3.81,14.28-4.81,21.56-1.87,13.56-4.1,27.19-.6,40.87,1.91,7.47,9.82,9.94,15.26,4.46,1.93-1.94,3.2-4.62,4.43-7.12C606.37,105.08,606.72,93.15,606.12,78.76Z"/><path d="M695.32,151.54a57.21,57.21,0,0,1-31.75-10.41c-8.7-6-12.91-14.95-13.61-25.5-.78-11.89,1-23.48,4.37-34.86,5-17,11.84-32.86,24.9-45.36a37.16,37.16,0,0,1,18.5-9.83c9.12-1.89,14.66,2.93,13.84,12.09a74.16,74.16,0,0,1-1.52,8.43c-.89,4.21-2.83,7.4-7.74,7.16-5.84-.29-9.12,3.28-11.52,7.92-7,13.46-11.51,28-11.7,43-.28,21.77,14.9,26.9,30.46,19.08,5.93-3,10.54-8.17,17.64-9.39,3.83-.66,6.89-1.16,9.6,1.82,3.15,3.45,2.37,7.2.41,10.92-7.19,13.63-19.11,20.58-33.45,24A68.8,68.8,0,0,1,695.32,151.54Z"/><path d="M39.69,94.85c-15.35,4.66-30.31,9.32-37.9-3.73C-5.27,79,17.56,58.44,27.1,46,39.79,29.35,57.72,1.68,75.18,5.47c21,4.57-36.2,53-39.09,64.93-.89,1.47-.68,3.79,1.52,2.79,32-14.57,55.4-1.75,26.74,30.23-17,19-34.8,30.72-38.17,57.37.37,4.79-10.09,12.16-15,11.46-3.54-.5-12.65-5.24-11-16.66C3.68,127.43,28.57,119.6,39.69,94.85Z"/><path d="M431.37,131.7C414.77,93.2,496.16-1.67,503.87,0c6.1,1.34,16.36,7.42,13.59,16.32C477,52.47,444.81,107.86,460,125.65c6.67,7.8,18.2,1,19.86-2,2.77-4.94,11.31-21.06,8.9-31.16-2.46-10.35,33.68-17,44.73-17.85,8.29-1.45,10.64,13.22,3.49,16.31-11.4,7.07-19.69,2.6-24.59,16.18-4.63,12.81-16.33,45.83-39.66,50.3C455.12,160.8,438.79,148.89,431.37,131.7Z"/></g></g></svg>