<svg xmlns="http://www.w3.org/2000/svg" viewBox="0 0 1187.34 172.3"><g id="Layer_2" data-name="Layer 2"><g id="Layer_1-2" data-name="Layer 1"><path d="M1156.23,154.14c-3.07,0-9.36-1.63-11.93-6.23-8.37-14.95-12-31.55-17.21-49.75-4.14,10-4.77,18.86-7.42,27.17-1.3,4.1-2.14,8.35-3.17,12.53-2,8.1-7.6,12.2-15.37,13.59s-11-1.33-9.75-9.09c1.32-8.53,3.36-16.94,5.16-25.39,4.11-19.17,9-38.22,8.4-58.08-.17-6.08-1.71-11.21-3-17.35-2.52-12.41,1.1-19.26,11.23-20.74,12.18-1.78,21.51,5.1,25.44,18,6.27,20.61,12.62,41.21,16.37,62.51,1,5.42,3.06,10.64,5.11,17.53,4-15.81,2.3-30.16,2.45-44.39.15-13.32-.35-26.65.07-40,.24-7.86,6-11.31,13-8.72,1.24.46,9.83.34,10.45,1.67,1.32,2.81.77,17.56.66,26.86s.54,18.51.58,27.87c.09,21.37,0,46.69-5.55,63.44C1178.42,155.72,1164.9,154.06,1156.23,154.14Z"/><path d="M237.73,103a25.09,25.09,0,0,0,4.32-8.53q8-23.36,15.95-46.7a54.54,54.54,0,0,1,10.7-19.16,23.18,23.18,0,0,1,12.39-7.22c7.49-1.79,11,.36,12.13,7.47,1,6.47.57,13,0,19.45-1.42,16.55-3.28,33.07-5.12,49.59-1.61,14.47-3.18,28.91,1.43,43.21a15.57,15.57,0,0,1,.51,4.63c0,3.33.47,7.07-3.37,8.87-4.58,2.14-11.19.57-14.3-3-4-4.66-5.25-10.36-5.53-16.06-.57-11.66-1.79-22.42-.14-34.11,1.54-11,3.16-24,5.24-36.19-2,2.21-3,6.75-3.65,8.58-4.78,13.26-8.14,24-13,37.23a36.06,36.06,0,0,1-5.84,9.79c-6.11,7.27-11.79,10.37-20.32,10.59-6.17.16-9.09-2.65-11-8.62a36.17,36.17,0,0,1-1.33-12.35c.6-15.72-1.81-31.32-1.84-47a391.73,391.73,0,0,1-9.26,52.14c-2.71,11.1-6.52,21.94-8.64,33.21-1.08,5.77-11.59,9.84-17.23,7.25-2.55-1.17-2.5-3.26-2.15-5.33-.17-6.17,2.16-12.62,3.24-19.05,1.41-8.45,5.59-18.82,6.91-27.83,3-20.77,9-40,4.64-61.12-2-9.51,5.79-13.28,13.45-14.08a37.87,37.87,0,0,0,11.66-2.88c8.52-3.7,13.43-.86,15,8.08A226.94,226.94,0,0,1,236,77.22C235.85,85.49,237.08,93.62,237.73,103Z"/><path d="M936.66,82.63A95.85,95.85,0,0,0,928.84,105a70.2,70.2,0,0,1-4.07,13.21c-3.78,8.54-9.58,12.23-17,11.49-8.57-.87-15.14-4.32-17.66-14A71.22,71.22,0,0,1,887.66,101a180.39,180.39,0,0,0-3.34-28.61c-3.66,18.86-6.47,35.72-8.61,52.73-1,7.9-1.06,6.83-1.58,14.77-.74,11.4-7.54,18.67-20.33,13.24-4.26-1.81-5.9-4.51-5.39-9.18.86-7.92.83-6.92,2-14.79,2.24-15.19,2.14-30.4,1.15-45.69-.46-7-1.27-13.77-4.62-20.19-3.07-5.86-1.57-10,3.72-13.32a7.61,7.61,0,0,1,2.56-1.25c9.68-1.7,16.35-7,20.67-16.5,3-6.55,10.24-7.48,16.34-8.66,4.86-.94,7.15,3.46,8.58,7.76,4.71,14.2,8.53,28.61,10.15,43.58.27,2.47-.35,5.31,2.34,7.92,2.59-7.77,5.36-15,7.42-22.55,2.13-7.71,5.35-14.88,8.63-22a21.55,21.55,0,0,1,10-10.21c9.35-4.91,15.73-2.25,19.23,8.24a61.81,61.81,0,0,1,3.2,18.6,495.46,495.46,0,0,0,4.17,54.67c.52,4,2.52,19,4,22.76,3.06,7.54,1.45,13.71-3.65,16.5-5.77,3.15-14.73.45-18.13-6.2-4.38-8.6-7.88-29.25-8.59-38.95C937.1,96.7,936.34,89.77,936.66,82.63Z"/><path d="M159.24,86c.84,13,1.14,25.93.83,38.9-.12,5.2-1,10.16-4,14.75-2.15,3.29-5.26,4.53-8.91,4.69-4.64.2-5.79-1-5.87-5.61-.17-11-.29-22-.46-33a46.34,46.34,0,0,0-.3-5.14c-.6-4.55-1.41-5.13-5.95-3.54a42.68,42.68,0,0,1-12.82,2.82,6.11,6.11,0,0,0-6.16,4.7c-3.93,13.16-8.88,26.1-9.52,40-.26,5.5-1.32,6.93-7.1,7.87-4.17.67-8.81,2.39-12.15-2-.87-1.14-1.51-2-1-3.86,5.5-22.12,12.79-43.82,17.11-66.21,2.23-11.56,5.1-23,7.71-34.49.27-1.19.41-2.62,1.19-3.46,6.14-6.57,12-13.55,20.57-17.48,7.22-3.33,11.57-1.5,15,5.46C153.46,42.9,157.51,56,158.17,69.88,158.43,75.27,158.88,80.64,159.24,86ZM132.09,50.77c-1.93,3.83-4.07,7.2-5.47,10.81a164.67,164.67,0,0,0-5.14,16.86c-.5,1.86-.53,4,1.84,5.09,4.58,2.11,15.28-3,15.42-7.59A45.32,45.32,0,0,0,132.09,50.77Z"/><path d="M991.37,144.11c1.22-13.71,5-25.14,7.57-36.81,3.41-15.48,7-30.94,10-46.49.92-4.63.42-9.53.49-14.3.1-7.25.59-8.52,7.26-10.74,5.88-2,11.36-4.21,15.92-8.48,1.47-1.38,3.73-2.06,5.74-2.75,8.81-3,14.46-.6,17,8.13,3.13,10.62,5.78,21.39,8.19,32.19.89,4,0,5.41,2.52,9.61,1.87,3.06,3.57,4.13,1.85,9.06-2.53,7.29-1.37,10.08-.87,16.24.91,11,1.67,22.08.85,33.13s-7.69,16.9-18.85,16.6c-5.67-.15-7.23-1.94-5.94-7.26,3.25-13.36,1.16-26.69-.1-40-.26-2.75-2-3.36-4.55-3.06-4.65.55-8.94,2.23-13.28,3.76-2.3.81-3,2.73-3.66,4.82-3.54,10.84-6.49,21.8-7.23,33.22s-6.59,14.7-17.29,10.49C992.48,149.66,991,146.76,991.37,144.11ZM1028.59,79c8.29-1.12,11.69-2.49,11.12-5.13-1.41-6.44-.85-13.41-5.38-19.45C1032.94,62.58,1027.88,69.69,1028.59,79Z"/><path d="M764.27,53.88c0,5.32,0,10.65,0,16,0,3.72,2.12,5.42,5.74,5.28a81,81,0,0,0,18.58-3.39c3.63-1,4.47-3.65,4.34-6.9-.42-10.6,1.52-16.81-1.48-27.32-1.48-5.2-.85-10,4.6-12.87,5.86-3.08,12.08-4.26,18.07-1,3.72,2,4.92,5.8,4.26,10.34-1.54,10.59-.49,16.81-.73,27.45-.11,4.88-.58,7.82,2.05,12.51,2.28,4.08,1.6,5.89.54,10.14-1.83,7.31-2.13,10.05-1.93,15.88.34,9.94.76,19.92,1.88,29.79.87,7.6-2,12.75-7.85,17-7.14,5.21-12.92,3.48-14.48-5-1.32-7.18-2-14.49-2.76-21.76-.7-6.95-1.2-13.92-1.56-20.89-.22-4.33-1.86-6.28-6.27-4.72-5.11,1.81-10.47,1.7-15.74,2.35-8,1-9.87,2.73-9.72,10.91.21,11.37-1.6,22.56-2.19,33.85-.42,8.13-3,11.84-7.76,11.94-7.13.15-14.67-6.26-14.72-13.22-.08-9.31.28-18.63.8-27.93.9-16.26,2.24-32.49,3-48.76.36-7.34-1.53-18.23-3.48-25.29-2.1-7.58-.68-10.52,6.63-12.65a33.91,33.91,0,0,1,8.83-1.4c7-.15,10.57,3,11,10,.34,5.31.07,14.37.07,19.7Z"/><path d="M548.55,110.51a186.58,186.58,0,0,1,9.39-59.91c5-15.55,24.48-30.07,45.34-25.61a9.88,9.88,0,0,1,6.31,4.69,85.37,85.37,0,0,1,12.7,32.7c4.12,23.1,2.83,45.05-6.57,66.87-7.68,17.84-31.83,27.22-49.11,19.05-12.34-5.84-19.12-14.65-18.08-29.35C548.72,116.15,548.55,113.33,548.55,110.51Zm49.77-31.75a156.65,156.65,0,0,0-2.79-29.12c-1.21-6-3.75-6.65-8.41-3.11A22.2,22.2,0,0,0,580,56.45c-2.74,6.92-3.58,14.28-4.53,21.56-1.75,13.56-3.85,27.19-.56,40.87,1.8,7.47,9.25,9.94,14.37,4.46a26.78,26.78,0,0,0,4.17-7.12C598.56,105.08,598.89,93.15,598.32,78.76Z"/><path d="M682.32,151.54a51.76,51.76,0,0,1-29.89-10.41c-8.2-6-12.17-14.95-12.82-25.5a105.69,105.69,0,0,1,4.11-34.86c4.69-17,11.15-32.86,23.45-45.36a34.38,34.38,0,0,1,17.42-9.83c8.59-1.89,13.81,2.93,13,12.09a76.09,76.09,0,0,1-1.43,8.43c-.84,4.21-2.66,7.4-7.28,7.16-5.5-.29-8.59,3.28-10.85,7.92-6.56,13.46-10.84,28-11,43-.27,21.77,14,26.9,28.68,19.08,5.59-3,9.93-8.17,16.62-9.39,3.61-.66,6.48-1.16,9,1.82,3,3.45,2.23,7.2.38,10.92-6.77,13.63-18,20.58-31.5,24A61.07,61.07,0,0,1,682.32,151.54Z"/><path d="M39.69,94.85c-15.35,4.66-30.31,9.32-37.9-3.73C-5.27,79,17.56,58.44,27.1,46,39.79,29.35,57.72,1.68,75.18,5.47c21,4.57-36.2,53-39.09,64.93-.89,1.47-.68,3.79,1.52,2.79,32-14.57,55.4-1.75,26.74,30.23-17,19-34.8,30.72-38.17,57.37.37,4.79-10.09,12.16-15,11.46-3.54-.5-12.65-5.24-11-16.66C3.68,127.43,28.57,119.6,39.69,94.85Z"/><path d="M411.56,131.7C395,93.2,476.34-1.67,484.05,0c6.1,1.34,16.37,7.42,13.59,16.32C457.17,52.47,425,107.86,440.2,125.65c6.68,7.8,18.2,1,19.87-2,2.76-4.94,11.3-21.06,8.9-31.16-2.47-10.35,48.55-21.41,59.6-22.31,8.29-1.45,10.63,13.23,3.49,16.31-11.4,7.08-34.56,7.06-39.47,20.64-4.63,12.81-16.33,45.83-39.65,50.3C435.31,160.8,419,148.89,411.56,131.7Z"/></g></g></svg>