<svg xmlns="http://www.w3.org/2000/svg" viewBox="0 0 1029.74 140.11"><g id="Layer_2" data-name="Layer 2"><g id="Layer_1-2" data-name="Layer 1"><path d="M368.6,127.93c-.87-7.86-1.36-29.86-1.4-44.8a91.59,91.59,0,0,0-.4-12c-.62-4.48.33-8.32,1.92-12.53,3.29-8.66,4.86-18,8.9-26.38C384,19,392.39,7.82,406.76,2.32,419.78-2.66,425,.44,432,11A33.38,33.38,0,0,1,437.18,35c-2.62,16.55-8.7,31.32-21.41,42.9A33.9,33.9,0,0,1,403,85.46c-5.25,1.66-7.15,5.12-7.12,10.54.07,12.63,1,29.25.88,37.88C396.66,141.08,370.09,141.32,368.6,127.93Zm27.32-63.09c12.43-9.27,17.54-25.4,11.41-33.91C399.22,40.39,394.7,50.81,395.92,64.84Z"/><path d="M59.85,1.61c-6.92-.68-14-.26-21-.52C25.06.57,13.86,6.27,3.21,13.38A6.6,6.6,0,0,0,.15,20.59C1,25.37,2.27,30.1,2.9,34.91,5.59,55.11,7.39,75.36,7,95.75c-.16,7.58-.67,15.2.73,22.74.53,2.81-.15,9.35.49,12,1,4.07,4.59,9,9.11,9.6,2.66.34,15.37-2.22,14.24-9.62-.37-2.39,0-4.86,0-7.29,0-14.56.23-29.12-.12-43.67-.12-5.07,1.58-8.08,7-9.39,1.26-.31,2.35-1.18,3.6-1.57C54.17,64.7,61.48,56.3,66.67,46.09c1.83-3.61,3.63-7.15,6.48-10.18l1.75-3.19c-1.7-4.84,0-9.64.18-14.45C75.46,8.15,70.81,2.68,59.85,1.61ZM46.46,31.36c-2.09,5.42-4.18,10.85-8.34,15.32-1.49,1.6-3,3.55-5.69,3-3.6-.72-2.6-3.71-3-5.95-.53-3.28-1-6.58-1.47-9.86-1.5-9.54.63-11.71,11.57-11.73C48.25,22.13,49.42,23.66,46.46,31.36Z"/><path d="M80,43.35,81.79,40c2.67-5.64,7.87-8.66,13.36-11,14.1-5.89,26.85-14,40-21.58a58.31,58.31,0,0,1,10.8-4.9c5.94-2,10.13-1.1,12.52,2.4,2.62,3.83,2.39,11-1.05,14.42-2.74,2.73-5.83,5.63-9.37,7-10.26,4-18.75,10.88-28.54,15.62-6.15,3-9.43,7.93-7.87,15,.94,4.23,2.34,5.06,6,2.47a94.89,94.89,0,0,1,11.91-7C138.11,48,143.78,49.1,148.25,56c4.21,6.49,2.63,13.12-5.34,17.92-11.15,6.73-18,16.82-24.65,27.13-1.6,2.48-2.48,5.15-.42,9,5.67-3.82,11-7.36,16.34-11a23,23,0,0,1,10.91-4.45c4-.39,7,1.41,9.4,4.4s1.21,5.67-.7,8c-15.53,18.54-34,32.38-60.15,33.18a30,30,0,0,1-3-.05c-15.68-1.06-19.82-8.38-11-20.6,8.27-11.38,11.2-23.21,8.8-37.07C86.54,71,85.51,59.63,80.3,49,79.53,47.45,80.1,45.26,80,43.35Z"/><path d="M494.79,65.1c3.39-3.59,6.4-6.21,8.7-9.35,3.16-4.3,7.73-6.31,12.26-8.21,5.3-2.22,10.83-.14,14,4.49a11.68,11.68,0,0,1-1.15,14.68A94,94,0,0,1,517.83,77a32.05,32.05,0,0,0-11,15.13c-1.75,5.33-6.3,9.27-7.69,15.94a36.15,36.15,0,0,0,15.15-6.15c5.49-3.76,10.93-7.61,16.6-11.06,3.84-2.34,8.08-3.64,11.73.58,3.34,3.86,2.66,8,.41,12.06a19.5,19.5,0,0,1-3.57,4.78C526.87,120,513.38,130,495.38,131.41c-5.33.41-10.49,1.19-15.47,3.43a15.77,15.77,0,0,1-9.83.68c-4.25-.94-7.33-3-7.19-8.05.12-4-.63-8.08.05-12,2.77-15.77,2.57-31.75,3.61-47.63.65-10,.42-19.9-2.44-29.67-1.74-5.91-.2-9.68,5-12.64,4.58-2.62,9.47-5.27,15.07-4,3.35.77,5.89-.37,8.28-2.28C500.05,13.25,509.26,10,517.51,5a17.67,17.67,0,0,1,9.56-2.4c6,.07,10.42,2.68,11.86,7.22,1.37,4.29-.54,10.07-4.9,13.2a37.54,37.54,0,0,1-9.74,4.89,60.07,60.07,0,0,0-23.36,14.83C495.32,48.49,491.66,55,494.79,65.1Z"/><path d="M958,100.54c-.74-13.61.56-27.25.85-40.87.2-9.54,2-19-.78-28.62-1.54-5.43,1.35-10.15,5.9-12.79A28.62,28.62,0,0,1,972.42,15c12.78-2.65,25.08-7.06,37.23-12.06a23.22,23.22,0,0,1,10.84-1.3c5.18.39,7.34,4.58,8.75,9.33,1.45,4.91-.33,8.73-4,11.43a30.14,30.14,0,0,1-11,5.18c-7.23,1.69-13.72,5.57-20.56,8.41-7.29,3-7.65,4.27-7.06,13.41.14,2.21.54,4.4.6,6.61.13,4.82,2.08,6.71,6.39,5.37a31.7,31.7,0,0,1,9.79-1.87c5.07,0,8,2.85,9.67,7.9,1.52,4.73-1.13,7.86-3.74,10.62-3.83,4.06-8.75,4.81-13.91,4.88-10.34.15-11.76,1.88-11.21,12.67s1.12,11.23,10.68,9.1c5.2-1.16,10.32-2.86,15.7-2.93,4.41-.06,7.69,1.54,9.49,6.39,1.71,4.62-1.34,6.84-3.58,9.38a18.52,18.52,0,0,1-5.48,4.65c-16,7.52-42.14,16.75-48.44,13.68C954.59,131.93,958.5,109.42,958,100.54Z"/><path d="M889.74,81.2c8-15.38,11.62-31.12,17.39-45.67,2.08-5.25,4.1-10.54,6.25-15.76a11.53,11.53,0,0,1,7-7c10.88-3.73,17.46,4.26,14.21,18.15-2.71,11.58-6.48,22.8-9.62,34.25-4.52,16.55-10.88,32.23-16.21,48.4-.51,1.54-1.1,3-1.65,4.58-3.35,9.37-6.61,18.77-17.53,17.65-11.61-1.2-18.43-8-21.51-21.36-5.25-22.81-10.49-45.62-16-68.36-1.92-8-4.57-15.69-6.73-23.58-3-10.88-.13-16.43,10.65-21.11,7.89-3.43,13.77-.77,16.82,8.81a222.36,222.36,0,0,1,7.27,28.47C882.58,52.5,885.62,66,889.74,81.2Z"/><path d="M689.2,83.46v-40c0-7.36-1.84-12.67-9.52-14.19A19.5,19.5,0,0,1,667.6,22C663.81,17,664,12.41,669,9.15c6.15-4,13-6,20.12-4.78,20.58,3.57,41,.49,61.52-1C758.92,2.78,767.12,1,775.45,2c3.43.39,7,.91,7.74,5.42.78,4.88-2.15,7.76-5.93,8.87C763.19,20.39,749.64,27,734.82,27.67A70.22,70.22,0,0,0,725,29.1c-9.37,1.82-9.54,2-9.38,12.8.32,21.84.72,43.67-.18,65.5a121.71,121.71,0,0,1-1.86,17.6c-1.55,8.19-13.37,13.68-19.92,9.48-3.73-2.39-5.21-5.94-5.06-11.08.38-13.3.13-26.63.13-39.94Z"/><path d="M313.29,136c-6.2.5-11.89-3.81-18.27-5.5-2.5-.67-3.61-3.1-2.15-5.8,2.14-4,4.3-7.89,9.5-8.11,4.75-.19,10-.55,11.34-6.32s-.87-10.75-4.91-15c-6.32-6.61-12.89-13-18.09-20.67C283.8,64.38,284,59.83,290,49.19c7.3-12.9,16.93-23.85,25.71-35.53,4.12-5.49,9.73-8.35,15.7-10.48,5.8-2.07,12.48,1.65,14.7,7.46,2.51,6.53.81,13.19-5.21,15.74-12,5.11-17.81,16.1-24.48,26.32-2.5,3.81-2.16,7.79.25,11.65a34.7,34.7,0,0,0,10.41,11c18.75,12.27,18.21,35.62,6.73,50.5C328.71,132.44,322.37,136.2,313.29,136Z"/><path d="M601.29,135.84c-11.42-.4-22.23-2-30.6-11.79-4.85-5.66-7-11.73-5.55-18.86a229.67,229.67,0,0,1,20.07-56.68c5.73-11.44,13.15-21.94,19.54-33,4.24-7.34,10-12.28,18.06-14.06,5.91-1.29,10.66.71,14.41,5.54,3.47,4.47,2.3,9,.31,13.67-1.13,2.64-2.94,4.64-4.69,6.82-16.17,20.11-27.77,42.69-33.46,68.37-.86,3.85-2.74,8,.85,11.35,4.4,4.16,9.06,1.57,13-.64,5.43-3.06,10.34-7.12,15.45-10.8,7.8-5.61,14.33-6.74,18.06-3.07S650,105.8,645,112.8C634.13,128,620.13,136.94,601.29,135.84Z"/><path d="M809.46,138.06c-10.13,1.18-13.06-3.2-11.12-15.71,2.74-17.75.85-36.06-.73-54.06-1.34-15.26-1.18-30.38-2.3-45.61C794.22,7.92,807-3,816.26,3.64c5.82,4.14,8.25,11.8,7.61,19.86-1.9,23.88,1.7,48,2.13,72,.17,9.89-1.38,19.21-2.31,28.62C822.57,135.47,815,136.4,809.46,138.06Z"/><path d="M281.14,114.47a21.24,21.24,0,0,0-10.27-11.59C260.3,97.39,250.05,91.23,239,86.81c-9.34-3.73-10.25-4.92-5.78-14.06,4.76-9.71,6.67-20.21,9.54-30.43a51.75,51.75,0,0,0,1-22.65C241,3.53,229-3.53,214.55,2.51a35.79,35.79,0,0,0-16.72,14.41c-4.44,7-8.36,14.47-15.35,19.37-3.49,2.45-4.42,6.27-3.3,10.19,3.39,11.93,3.13,24.14,3.14,37.21,1.34,12.41,1.17,25.85,4.62,38.91,3.56,13.45,5.2,15.12,18.79,16.24,7.72.63,12.94-3.45,13.8-11.26.37-3.38-.22-6.86-.06-10.28.3-6.37,1.67-7.41,7.52-5.28a129.1,129.1,0,0,1,27.9,14c6.17,4.16,12.82,5.75,20,2.9C282,126.11,283.9,121.64,281.14,114.47ZM208.78,62c-6.61-24.15,13-35.35,13-35.35C225.93,36,215.06,58,208.78,62Z"/></g></g></svg>