<svg xmlns="http://www.w3.org/2000/svg" viewBox="0 0 644.04 140.18"><g id="Layer_2" data-name="Layer 2"><g id="Layer_1-2" data-name="Layer 1"><path d="M144.27,46.35c.17,9.82-.13,19.55-4.51,28.95-4.74,10.18-14,11.94-3.7,18.21,15,9.11,30.22,17.87,45.4,26.7,2.58,1.5,5,3.06,6.71,5.43,3.33,4.72,1.5,9.94-4.21,12a21.51,21.51,0,0,1-19.05-1.77c-9.26-5.44-18.1-11.44-27.18-17.12-7.49-6.28-7.49-6.28-12.33-9.58-4.28-2.08-4.6-1.74-5.47,2.31a22.18,22.18,0,0,0,.54,11c1.37,4.8,1.53,9.53-3.09,12.67-5.18,3.52-11.39,3.22-17.29,1.77-3.37-.83-4.19-4-4.14-6.8.3-16.13-4.4-31.85-4.28-48a187.64,187.64,0,0,0-4.13-40.53c-.37-1.78-.74-3.91,0-5.46,6-13.19,12.6-26,27.6-32.61a51.2,51.2,0,0,1,6.46-2.42c9.54-2.68,14.45,0,17.2,8.77C142.48,21.79,146.2,33.67,144.27,46.35ZM113.62,67.4c5.72-2.57,15-23.93,4-40.22C102.61,29.82,109.64,57.73,113.62,67.4Z"/><path d="M279.76,75.22c-1.54,13.59-1.43,27.45-8.28,40.11-8.36,15.46-32.19,30.55-54.88,20.36-7.08-3.19-11.78-9.71-13.64-17.12-6.15-24.47-2.48-48.44,4.56-72.2C210.89,35,215.78,24.68,224,16.1c5.12-5.31,10.74-9.62,18.54-10.07,5.18-.31,8.86,1.42,13.41,4.58C270.8,20.91,274.38,35.7,276.33,52,277.25,59.72,280.07,67.22,279.76,75.22Zm-23.56,6.9a155.22,155.22,0,0,0-6.62-47.86c-1.11-3.75-2.16-7-6.89-7-4.19,0-5.65,3.35-7.44,7-10.2,21-14,40.31-12.81,63.51a32.15,32.15,0,0,0,5.81,16.67c2.37,3.47,5.37,4.59,9.71,3.66,7.9-1.7,10.71-5.5,13.14-12.81C254,96.69,257.1,88.86,256.2,82.12Z"/><path d="M442.39,117.47c6.19-2.82,12.22-5.65,18.34-8.34,4.73-2.09,9.07-4.93,14.52-5.66,3.31-.44,5.94.22,7.73,2.77,1.59,2.28,1.25,4.5-.65,6.52-3.18,3.38-5.85,7.41-9.73,10-10.14,6.68-20.93,12.58-33,16.15-8.21,2.42-16.55,1-24.55-.76-6.59-1.49-8-5-5-10.72,3.28-6.33,4.17-12.8,3.83-19.71-.44-9.07.92-18.22.8-27.21-.22-16.6,3.81-33.41-1.86-49.83-.86-2.51-.26-4.58,1-6.72,4-6.59,10.24-11.57,18.27-12.57,12.31-1.53,23.91-5,35.78-7.76,1.29-.3,2.53-.77,3.83-1,5.14-.86,8.09,1.83,10.48,5.25,2.54,3.64-.19,6.1-2.7,8.48a25.31,25.31,0,0,1-9.25,5.11A136.83,136.83,0,0,1,456,25.54c-19.34,4.54-18.6,4.76-16.4,20.7a43.8,43.8,0,0,1-.14,13.18,75.78,75.78,0,0,0-.79,9.63c-.12,3.37,1.42,5.09,5.52,3.7.93-.32,1.84-.69,2.8-.93,5.85-1.45,10.54-.38,13.33,3.19,3,3.88,2.2,7.7-.35,11.57-5.67,8.6-11.23,17.25-16.76,25.92C442.45,113.7,441.42,115,442.39,117.47Z"/><path d="M2.86,68.41C3,63.32,3,58.63.94,54.15c-1.08-2.3-1.63-4.91.6-6.6,6.09-4.61,6.39-11.1,6.39-17C7.93,19.76,14.52,13,23.47,7.4A52.2,52.2,0,0,1,40.67.58C51.94-1.77,61.14,3.12,64.55,12.8c3.08,8.75,2.13,17.51.15,26.13C62.14,50,57,60.13,47,67.78A24,24,0,0,1,39.44,72c-8.34,2.59-10.29,4.86-10.08,12.63.18,6.77,2.42,13.28,4,19.87,2,8.33,4,16.69,3.87,25.23-.15,8.21-11.31,13.17-19.47,8.9-2.64-1.39-3.16-3.73-3.15-6.1.08-14.49-4.83-28.4-6.41-42.69A12,12,0,0,0,6.06,84C2.23,79,1.26,73.77,2.86,68.41ZM42.61,29.66c-.68-3.6,1.23-7.31-2.74-9.39-2.31-1.22-6.9,2.22-9.28,6.7a8.82,8.82,0,0,0-1,2.47C28.23,37,26.85,44.46,25.75,52c-.27,1.9-.78,4.51,2,5.37,2.64.8,4.1-1.36,5.66-2.83C41.09,47.35,40.89,38,42.61,29.66Z"/><path d="M537,136.84c-5.77.2-11.11-1.51-16.52-2.9-5.05-1.29-6.32-4.68-6.41-8.78-.1-4.56,4.17-4.56,7.48-5.62,2.86-.92,5.84-1,8.82-1.22,6.58-.55,7.86-1.63,8.67-7.48,2-14.16-2.26-25.78-16.93-33.78-9-4.91-17.54-10.62-24.68-17.6-8-7.84-7.81-11.05.71-18.36,11.64-10,23.44-19.8,35.08-29.77a35.71,35.71,0,0,1,14.61-7.26c5.64-1.44,11.18.66,13.76,4.68,3,4.6,2.1,9.52-2.64,13.45a36.37,36.37,0,0,1-6.37,4.2c-3.71,1.91-7.43,4-11.47,5.22-8.66,2.58-12.56,9.26-17.64,14.91-2.46,2.72-.05,4.74,2.14,6.73,5.86,5.29,13.06,9,19.94,13.07,17,10,21.44,24.35,19.34,41.08a53.58,53.58,0,0,1-4.26,15.25C556.19,132.53,549.18,136.82,537,136.84Z"/><path d="M617.21,138.8c-10.38-1-21.5-2.63-31-9.5-5.79-4.2-6.76-6.62-4.28-11,3.15-5.61,9.7-8.62,14.92-6.55,3.66,1.45,7.07,3.52,10.71,5,3.84,1.59,5.57,0,5.63-3.9.12-9.51-4.64-16.47-12.38-21.77-5.69-3.9-11.55-7.55-17.33-11.32a49.18,49.18,0,0,1-5.7-3.87c-13.53-11.93-11.63-15.8-2.89-26.47C587.76,33.76,603.21,20.66,619,7.94c3.67-2.95,8.23-4.36,12.71-5.26a9.82,9.82,0,0,1,10.93,4.93c2.43,4.33,1.5,10.3-2.07,13.27a19.48,19.48,0,0,1-5.15,2.77c-14.6,5.91-24.63,17.19-34.86,28.05-6,6.34-5.29,8.78,2.06,13.87A150.79,150.79,0,0,0,617,74.3,67.36,67.36,0,0,1,633.08,87a24.16,24.16,0,0,1,7,14.47,55,55,0,0,1-1.94,23.69C635,135.1,629.05,139.1,617.21,138.8Z"/><path d="M343,138.63a61.67,61.67,0,0,1-21.3-3.18c-23.41-7.64-30.64-27.06-20.47-50.28C307,72.11,314.07,59.65,320,46.66c7.58-16.6,20.5-28.37,34.29-39.45a18.87,18.87,0,0,1,5.32-2.68C365.45,2.4,369.72,4,372.09,9.1s1.33,10.12-4,12.75a47.39,47.39,0,0,0-18.44,16.42,179.74,179.74,0,0,0-25.35,56.09c-4.87,18.85,8.75,25.94,24,23.9a66.05,66.05,0,0,0,29.35-11.76c3.34-2.33,6.81-4.18,10.89-.9,4.34,3.49,4.94,6.17,1.78,11-5.66,8.75-13.9,14.4-23.43,17.77A66.22,66.22,0,0,1,343,138.63Z"/></g></g></svg>