<svg xmlns="http://www.w3.org/2000/svg" viewBox="0 0 538.92 137.38"><g id="Layer_2" data-name="Layer 2"><g id="Layer_1-2" data-name="Layer 1"><path d="M131.48,40.47c6-8.82,8.52-16.79,10.43-25.12,2.13-9.28,17.74-17,25.66-13,3.76,1.91,5.3,7.17,3.32,13.16-2.32,7-4.55,14.19-7.71,20.81-7,14.62-11.15,30.48-17.88,45.18-1.65,3.59-.33,5.4,2.56,6.57,1.85.76,3.83,1.12,5.74,1.7,14.4,4.38,28.66,9.27,41.7,17.3,8.41,5.18,8.06,12.55-.46,17.58-6.54,3.86-13.53,3.92-20.31,1.53-8.49-3-17.34-5-25.2-9.9a23.3,23.3,0,0,0-5.58-2.22c-9.11-2.76-9.9-2.41-9.88,7.5,0,6.91-2.57,12.16-8,14.75-5.91,2.81-11.68-.41-17-3.45-1.92-1.09-2.37-3.25-2.41-5.52-.13-7.83-1.65-15.53-1.48-23.42.3-14.61.05-29.23.09-43.85a188.32,188.32,0,0,0-4.6-41.29c-2-9-1.94-9,6-12.27,2.78-1.14,5.35-2.93,8.16-3.93,6.64-2.34,12.06.93,13.28,8.27C129.42,19.92,131.42,29,131.48,40.47Z"/><path d="M20.43,136.51c-6.59-.92-10.14-6.42-13.9-10.87-2-2.39-1.8-4.4,1.21-6,6.14-3.16,12-5.89,19.5-2.3,6.78,3.22,9.26,2,13-3.7A33.39,33.39,0,0,0,46.15,94c-.22-8-4.33-13.62-11.88-17.38A187.29,187.29,0,0,1,7.87,60.43C-2.45,53-2.39,47.66,6.72,38.87c13.49-13,28.69-24.15,44.57-34.63A23.27,23.27,0,0,1,67.13.14c6.68.69,11.29,4.19,12,9.1.9,5.95-2.7,11.53-9.49,13.07C55.42,25.56,45.12,34,35.45,43.12c-6,5.64-5.44,6.92,2.26,10.24A87.38,87.38,0,0,1,64.08,70.81c9.69,9.36,10.39,20.52,8,32-2.48,12-5.67,26.59-19,32.19C45.69,138.14,28.51,137.63,20.43,136.51Z"/><path d="M501.41,132.66c-6.94-.26-11.55-.46-16-1.94-4.22-1.38-5.53-4.11-5.29-8s2.91-5.46,6.55-5.79c7.73-.7,14.79-2.51,16.63-10.83,2.09-9.47,4.78-19.05-4.1-27.34C494,74,489.84,68.2,484,63.88a54.8,54.8,0,0,1-7.82-7.24c-9.53-10.52-12.06-13.25-.11-25.11A132.61,132.61,0,0,1,516.05,4a33.1,33.1,0,0,1,8.46-2.63c6.89-1,12.84,2.89,14.22,8.91,1.18,5.13-3.08,11.39-9.78,12-11.19,1.09-18.77,7.46-26.3,14.08-6.28,5.52-6.34,7.39.35,12.78,7.36,5.93,14.09,12.39,20.82,18.9q10.41,10.08,9.08,24c-1,10.84-5.58,20.68-11.19,29.91C516.92,129.92,509.5,134.52,501.41,132.66Z"/><path d="M413.74,22.17A524.74,524.74,0,0,1,404,99.44c-1.18,5.78,0,8,5,6.69,13.56-3.41,27.81-2.75,41-8.07,4-1.6,7.78-2.1,10.34,2.81,2.32,4.47,1.06,7.89-2,11.35-5.47,6.08-12,10.19-19.67,11.74-16,3.25-32,6-48,8.86a15,15,0,0,1-8.79-1c-6.58-2.84-8.41-6.31-6.88-13.93,2.89-14.46,6.42-28.79,8.71-43.35,2.68-17,4.68-34.12,4.09-51.33-.27-8.1,2.1-12.78,9.14-15.19A37.24,37.24,0,0,0,400.44,6c8.78-4.24,14.09-.52,13.94,9.83C414.35,18,414,20.07,413.74,22.17Z"/><path d="M310.22,34.73c-.15,19-2.63,37.67-4.81,56.42-1.84,15.91-.46,25.88,12.9,20.78,9.44-3.6,18.95-6.85,27.71-12.36a48.33,48.33,0,0,1,7.37-3.33c2.82-1.17,5.17-.31,7.16,2.18,2.21,2.79,3,5.84,1.23,9.17-3.75,7.12-8.24,11.37-15.1,15.23-16.38,3.91-33.14,9-50.25,11.67-6.17,1.72-11.8-1.72-16.74-5.51-2.77-2.12-3.66-5.62-2.72-9.88,4-18,4.34-36.65,6.52-55,.7-5.83.26-11.81,1.69-17.64,1.36-5.54,0-11-.9-16.51-1.95-11.52-.22-15.17,9.15-20.11,10.9-5.74,16.09-2.22,16.76,11.51C310.4,25.82,310.22,30.28,310.22,34.73Z"/><path d="M243.26,75.14c0,16,0,31.89,0,47.84,0,9.08-6.66,14.13-15.19,11.35-10.71-3.5-11.62-4.83-11.81-16.77-.29-19.39,1.51-38.66,2.65-58,.78-13.1-1-26.41-2.26-39.57-1-10.59,11.11-20.73,21-16.88,4.38,1.7,5.13,5.45,5.49,9.88A399.1,399.1,0,0,1,243.26,75.14Z"/></g></g></svg>