<svg xmlns="http://www.w3.org/2000/svg" viewBox="0 0 1362.32 139.75"><g id="Layer_2" data-name="Layer 2"><g id="Layer_1-2" data-name="Layer 1"><path d="M928.28,79.29c1.41-5.07,3.07-10.09,4.17-15.23C934.09,56.39,939,52.42,946.1,50,953,47.54,958.61,48.9,962.41,55a23.82,23.82,0,0,1,3,6.24c3.54,13.45,6.89,26.95,10.38,40.41a20.91,20.91,0,0,0,2,3.82c5.6-2.94,6.42-8.32,7.94-13.17,6.81-21.65,9.55-44,11.61-66.52.71-7.75,4.21-12.46,9.73-12.36,8.21.15,14.11,5.3,14.5,13.11a157.48,157.48,0,0,1-3.88,44.55c-3.29,13.85-6.36,27.76-10.07,41.5-3.3,12.22-13,19.5-25.25,20-17.67.66-24.9-4-31.92-20.53-.51-1.19-1-2.39-1.92-4.72-1.79,5.39-4.17,9.7-4.52,14.17-.91,11.8-7,13.7-21.13,13.64-7.5,0-13.35-5.63-15-13.72-2.53-12.29-4.49-24.69-6.57-37.07-1.64-9.8-3.09-19.63-4.6-29.46-.61-3.92-.87-7.93-1.81-11.77-1.16-4.71-1.73-10.21-4.58-13.73-5-6.18-5.33-13-3.22-19.21,2.64-7.79,10.51-9.58,18-9.89,8.45-.34,14.19,6.63,13.79,15.24a116,116,0,0,0,.71,15.57c.53,5.91,1.28,11.81,2.12,17.69,1.48,10.28,3.1,20.53,4.66,30.79Z"/><path d="M1183.25,104.54c-4.4,3.71-3.68,7.69-3.79,11.62-.35,11.53-5.72,17-17.33,18.23-6,.62-8.88-2-9-8.57-.13-13.61.36-27.24-.26-40.83-.6-13.19-1.15-26.48-6.6-39-1.38-3.16-1.06-7-1.26-8.63,4.56-5.8,7.84-10.16,11.34-14.34,2.13-2.53,4.2-5.48,7-7,14.76-8.24,29.68-16,47.53-14.63,8.78.67,17.41,6.39,20.38,14.71,4.16,11.65,1.45,22.27-5.64,31.75-8.88,11.88-18.28,23.37-28.2,36,2.66,2.24,5.65,5.12,9,7.51,10.77,7.71,21.65,15.26,32.53,22.82,3.24,2.25,7.1,3.83,9.81,6.57s5.67,6.4,5.56,9.57c-.16,4.64-3.88,8.14-9.15,9-9,1.49-16.54-.71-23.87-6.64C1209.05,122.74,1196,113.85,1183.25,104.54Zm22.61-79.3c-13.18,1.53-21.06,8.06-28.49,15-1.61,1.51-2.19,4.91-2,7.36.36,6,1.43,12,2.36,19C1193.81,56.84,1202.09,43.72,1205.86,25.24Z"/><path d="M1103.8,27c19.36.93,23.54,5.9,24.74,25.42,1.09,17.8-1.72,34.86-6.89,51.62-6.59,21.36-24.94,33.3-47.24,31.13-16.53-1.61-28.74-13-31.4-29.67a104.91,104.91,0,0,1-1.09-26.59c1.78-18.11,4.92-36,11.18-53.3,3.72-10.28,12-15.51,20.93-19.69,7.44-3.46,16.44-.17,21.85,7.35C1098.73,17.24,1100.82,21.77,1103.8,27Zm-28.14,16.54c-1.17,3-2.21,4.73-2.51,6.58-1.87,11.74-4.08,23.45-5.12,35.26-.53,6.11.52,12.55,1.92,18.6,1.74,7.53,9.08,10.29,15.36,6,3.16-2.19,6.4-5.22,8-8.62,7.51-16.5,10.12-34.07,9.94-52.09,0-1.1-1.16-2.2-1.47-2.75C1094.2,35.4,1085.14,31.76,1075.66,43.54Z"/><path d="M1295.26,117.5c0,2.83-.09,5.13,0,7.42.44,10.08-8.82,17.58-18,13.82-2.7-1.1-5.18-5.14-5.88-8.25-1.3-5.77-1-11.86-1.73-17.78-2.8-23.46,1.66-46.93-.14-70.35A123,123,0,0,0,1265.6,20c-2.24-8.39-.66-12.71,7.83-14.44,4.24-.86,9-4.63,13.18-.47,4.69,4.65,9.09,9.59,8.5,17.15-.28,3.53.55,7.15,1,12,7-5.69,7.83-13,9.31-19.71,2-9,12.07-15.37,20.77-12.69,5.48,1.69,9.4,10.33,7.5,16.41-4.66,14.87-11.49,28.7-19.1,42.27-5.13,9.14-8.89,19.05-13.32,28.73,6.89,7,15.75,9.3,24,12.55,8,3.17,16.4,5.38,24.55,8.24a23.72,23.72,0,0,1,7.76,4.12c3.24,2.85,5.63,6.18,4.51,11.28-1.2,5.49-4.72,8.09-9.56,8.77a23.39,23.39,0,0,1-10.62-.88c-14.6-5.15-29-10.76-43.57-16.16C1297.74,117,1297,117.3,1295.26,117.5Z"/><path d="M634.76,131.73c-5.4,0-11.61-.14-16.66-2.27-6.21-2.62-7.36-7.25-6.17-14.29,2-11.72,3.21-23.61,4.13-35.48.94-12.23,1.33-24.51,1.53-36.77a21.92,21.92,0,0,0-2.33-10.27c-5.1-9.59-4.27-13.89,5.63-19.15,3.7-2,8.21-3.6,12.27-3.43C649,10.73,664,6.75,679,2.81c8.17-2.14,11.61-1.25,15,3.8,3.1,4.66,3.11,8.22-1.57,11.17a69.4,69.4,0,0,1-17,7.75,228.26,228.26,0,0,1-27.13,6.1c-4.69.79-6.08,2.93-6.17,7.24-.16,7.25-.66,14.5-1.07,22.83,1.52.12,3.67.74,5.57.3,2.17-.51,4.11-2,6.15-3,11.25-5.79,15.72-4.37,22.52,7.51-7.7,16.26-24.92,25.88-32.74,43.67,10.8-.89,19.35-5,27.74-9.62,6.4-3.52,12.75-7.15,19.29-10.39a38.19,38.19,0,0,1,9.46-3c3.54-.71,6.39.47,8.28,4s.27,5.84-1.89,7.94c-2.84,2.78-5.73,5.76-9.14,7.68-14.62,8.22-27.62,19.47-44.74,23.63Z"/><path d="M169.92,0c8,10.35,7.93,13.1-1.07,19.73-4.72,3.47-10.42,5.65-15.78,8.2-2.08,1-4.5,1.24-6.65,2.12-10.5,4.32-14.91,3.5-13,18.15.72,5.48.12,11.12.12,17.19,6.36-.81,10.85-4.15,15.45-7.31a96.9,96.9,0,0,1,9.94-6.44c4.16-2.18,8.34-2,11.68,1.84,3.64,4.15,4.69,10,1,13.64-7.78,7.62-12.44,17.61-21.22,24.69-6.93,5.59-11.26,14.38-17.51,22.78,12.42-1,21.87-5.07,30.11-12.31,6.18-5.43,12.57-10.62,18.58-15.66,8.9,5.36,9.85,7.21,6.5,14.63-5.87,13-16.22,21.77-28.79,27.56a73.92,73.92,0,0,1-35.68,7A62,62,0,0,1,108.32,133c-7.2-2.35-9-8.27-5.66-14.81,1.88-3.71,4-7.76,4.2-11.77,1.09-17.56,1.39-35.17,2.3-52.74.35-6.86-.36-13.59-4-19.17-3.09-4.71-1.55-8.75.75-11.86,3.73-5.05,9-9.09,15.74-9.2a85.2,85.2,0,0,0,38.08-9.7C162.82,2.13,166.32,1.29,169.92,0Z"/><path d="M335.19,62.68l23.13-13.36c2.76,1.9,5.57,3.2,7.55,5.3,4.51,4.76,3.92,9.71-.76,14.58-12.17,12.67-24.22,25.46-36.29,38.23-1.05,1.11-1.87,2.44-4,5.3,11.37-.19,20.67-1.21,28.61-7.2,5.56-4.2,10.73-8.93,15.85-13.67,3.09-2.86,6.69-4.14,9.8-1.53,1.8,1.51,2.5,5.14,2.52,7.82.06,8.84-6,14.93-11.92,19.71-9.83,7.89-20.94,13.37-34.3,14.17-9.27.56-18.41,2.55-27.55-.36a32.36,32.36,0,0,1-8.17-3.38c-6.83-4.52-8.22-10.2-2-15.43,8.29-6.94,8.38-15.93,9.31-24.92,1-10.23,1.64-20.51,2.1-30.78A192.79,192.79,0,0,0,309,36.34c-.38-6.14,1.21-11.08,6.09-14.9,1.57-1.23,3.1-2.52,4.56-3.88,5.7-5.28,11.74-8.66,20.15-9.06S356.69,5.07,365.07,3c7-1.73,9.3-1,12.25,4.64,2.29,4.34,1,9.51-4.06,12.57a73.09,73.09,0,0,1-12.64,5.61c-2.77,1-5.78,1.39-8.65,2.17-15.66,4.26-15.63,4.32-17,20.67-.35,4.2-1.18,8.36-1.8,12.54Z"/><path d="M733.81,128.22l5.31-7.25c-.49-.7-.75-1.5-1.21-1.65-6-2-8.07-6.4-7.92-12.81.24-10.48,0-21,.12-31.44.14-15.85-1-31.45-5.91-46.63-.77-2.36.34-6.43,2-8.44A159.73,159.73,0,0,1,740.24,5.34C745.76.06,751.71-.35,758.63,3c19.62,9.36,33.81,24.46,42.32,45.14,4.52,11,3.09,22.94.29,34.22A155.07,155.07,0,0,1,792.1,109c-7.8,17.09-28.51,26.92-45.64,22.54C742.68,130.6,738.9,129.57,733.81,128.22ZM752.5,29c1.09,13.83,2.73,27.64,3.14,41.49S755.21,98,754.91,112c13.55-4.54,21.93-20.74,22.64-39.9C778.24,53.8,765.84,31.34,752.5,29Z"/><path d="M37.33,57.76c5.56,1.35,10.78,2,15.52,3.92,6.7,2.78,13.9,5.4,19.38,10.15,10.3,9,6.83,29.09,0,38.73A67.43,67.43,0,0,1,46,133.17c-8,3.77-16,3.45-24.26.35-5-1.88-7.16-4.74-5.72-11.92,5.32-1.91,11.3-4.25,17.38-6.19,7.76-2.48,13.54-7.9,17.54-15.08,4.84-8.68,1.32-15.85-8.57-18.25C34,80,25.46,78.67,17,76.8A48.68,48.68,0,0,1,6.62,73.57c-7.47-3.54-8.8-8.92-3.06-15C9,52.79,15.5,48.32,21.38,43.08c11-9.84,23-18.53,31.36-31.56C56.17,6.2,61.52,3.94,67.5,4.05,74.41,4.16,78,7.48,79.44,14.64c1,5-.72,9.32-6.5,12C59.79,32.8,50.76,44.73,39.69,53.77,39,54.37,38.62,55.54,37.33,57.76Z"/><path d="M596.28,15.79c-5.12,8.73-13.69,8-21.39,9-8.2,1-16.48,1.49-24.73,2.18-4.73.4-5.69,2.49-5,7.37,2.46,17.52,1.62,72-1.42,89.39-1.55,8.85-7,12-15.92,9.73-2.21-.57-4.38-1.3-7.8-2.32.38-6.23.49-12.42,1.18-18.54,1.6-14.23.83-65.21-1.35-79.32-.8-5.2-3.58-6.2-8.2-6.39-6.91-.3-14-.5-20.64-2.27-8.63-2.31-9.37-8.5-3-14.59C494,4.19,500.53,1.8,508.74,4.75a16,16,0,0,0,6.87,1c19.4-2.1,38.82,1.58,58.22-.27,1.95-.19,4,.28,5.93,0C587.75,4.55,593.28,7.55,596.28,15.79Z"/><path d="M235.15,101.17c10.78.37,19.18-4.45,27.58-9.12,2.41-1.34,4.56-3.36,6.95-4.71,6.95-3.88,10.05-2.79,13.38,4.39,2.95,6.36,2.08,12.56-3.76,16.52-8.95,6.08-18.16,11.83-27.73,16.16a94.58,94.58,0,0,1-25,7c-5.33.79-11.07-.53-16.37-2.19s-7.33-6.32-5.05-12.25c6.55-17,8-35.45,10.91-53.58a136.58,136.58,0,0,0,.64-39c-1.27-10.11-1.17-10.53,5.93-15.46,1.15-.8,2.3-1.64,3.48-2.36,3.67-2.22,7.65-4.16,11.11-.32,3.65,4.06,7,8.34,6.21,15.8-2.31,21.92-3.1,44.1-7.59,65.66C235.08,91.55,235.41,95.78,235.15,101.17Z"/><path d="M430.49,131.51c-9.79,1.47-26.09-8.46-29.8-22.22-2.58-9.57-1.41-18.89-.26-28.32,3-24.6,14-43.82,27.05-61.3A57.27,57.27,0,0,1,442.33,5.79c6.23-3.95,10.39-1.06,13.65,7.14,2.5,6.3-.22,10.07-4,13.62-16,15-24.25,35.83-27.54,60-2,14.57,3.84,21.47,15.41,18.09,7-2.06,13.74-5.73,20.57-8.73,2.2-1,4.3-2.3,6.52-3.11,3.8-1.39,6.49,1.06,8.36,4.79,1.76,3.5,1.09,6.39-1,10C464,125.64,449.19,130.71,430.49,131.51Z"/></g></g></svg>