<?xml version="1.0" encoding="utf-8"?>
<!-- Generator: Adobe Illustrator 24.2.1, SVG Export Plug-In . SVG Version: 6.00 Build 0)  -->
<svg version="1.1" id="Layer_1" xmlns="http://www.w3.org/2000/svg" xmlns:xlink="http://www.w3.org/1999/xlink" x="0px" y="0px"
	 viewBox="0 0 19.8 6.3" style="enable-background:new 0 0 19.8 6.3;" xml:space="preserve">
<style type="text/css">
	.st0{fill:#2C47BF;}
</style>
<g id="Layer_2_1_">
	<g id="Layer_1-2">
		<path class="st0" d="M0.9,3.6c-0.3,0-0.8,0-0.8-0.3c0-0.2,0.1-0.4,0.3-0.5c0.5-0.2,1-0.3,1.5-0.3c3.3,0,6.7,0.1,10,0.1
			c1.5,0,3-0.1,4.6-0.1c-0.5-1.4-2-1.1-2.5-2.2c0.9-0.4,1.2-0.4,1.7-0.1c1.3,0.8,2.5,1.7,3.7,2.5c0.1,0.1,0.2,0.3,0.4,0.6
			c-0.2,0.2-0.4,0.5-0.6,0.6c-1.4,0.6-2.7,1.2-4,2c-0.3,0.2-0.6,0.3-0.9,0.3c-0.1,0-0.7,0-0.6-0.3s1.8-1,2.3-2.1
			c-0.2-0.5-0.6-0.2-1-0.3c-0.3,0-0.6,0-0.9,0C10.2,3.6,5.4,3.5,2.5,3.4L0.9,3.6z"/>
	</g>
</g>
</svg>
