<svg xmlns="http://www.w3.org/2000/svg" viewBox="0 0 19.76 6.31"><g id="Layer_2" data-name="Layer 2"><g id="Layer_1-2" data-name="Layer 1"><path d="M.85,3.59c-.28,0-.78,0-.84-.3A.51.51,0,0,1,.3,2.8a4.37,4.37,0,0,1,1.46-.3c3.33,0,6.67.09,10,.1,1.49,0,3-.06,4.62-.1-.5-1.36-2-1.09-2.47-2.18.91-.38,1.19-.44,1.74-.08,1.27.81,2.5,1.68,3.73,2.54.14.1.21.31.38.58-.2.19-.38.47-.63.57a28.62,28.62,0,0,0-4,2,2.35,2.35,0,0,1-.94.33c-.12,0-.7,0-.58-.32s1.76-1,2.33-2.11c-.21-.46-.64-.2-1-.27A4.94,4.94,0,0,0,14,3.55c-3.84.1-8.63-.1-11.5-.11Z"/></g></g></svg>