<?xml version="1.0" encoding="utf-8"?>
<!-- Generator: Adobe Illustrator 24.2.1, SVG Export Plug-In . SVG Version: 6.00 Build 0)  -->
<svg version="1.1" id="Layer_1" xmlns="http://www.w3.org/2000/svg" xmlns:xlink="http://www.w3.org/1999/xlink" x="0px" y="0px"
	 viewBox="0 0 25.6 25.6" style="enable-background:new 0 0 25.6 25.6;" xml:space="preserve">
<path d="M25.6,2c0-1.1-0.9-2-2-2h-18c-1.1,0-2,0.9-2,2s0.9,2,2,2h16v16c0,1.1,0.9,2,2,2s2-0.9,2-2V2z M3.4,25L23.6,4.8
	c0.8-0.8,0.8-2,0-2.8l0,0c-0.8-0.8-2-0.8-2.8,0L0.6,22.2c-0.8,0.8-0.8,2,0,2.8l0,0C1.4,25.8,2.6,25.8,3.4,25z"/>
</svg>
