<svg xmlns="http://www.w3.org/2000/svg" viewBox="0 0 29.95 13.98"><g id="Layer_2" data-name="Layer 2"><g id="Layer_1-2" data-name="Layer 1"><path d="M0,5.88A1.26,1.26,0,0,1,1.38,4.74c3.53,0,7.05-.13,10.58-.21,1.5,0,3-.08,4.67-.13a4.19,4.19,0,0,0-.48-1.09,2.72,2.72,0,0,1-.56-1.95A1.45,1.45,0,0,1,17.13,0a4.12,4.12,0,0,1,1.43.4,37,37,0,0,0,8.32,3A3.81,3.81,0,0,1,29.5,5.36c.86,1.52.51,2.66-1.09,3.3-1.93.78-3.89,1.49-5.76,2.37a44.61,44.61,0,0,0-4.24,2.43,3.71,3.71,0,0,1-2,.52,2.32,2.32,0,0,1-2.05-1.14c-.61-1-.48-1.57.49-2.22l1.56-1,1.5-1c0-.46-.32-.41-.54-.41-3-.08-5.91-.34-8.87-.23-1.45.06-2.9,0-4.35-.07A5.08,5.08,0,0,1,0,5.88Z"/></g></g></svg>