<svg id="Layer_1" data-name="Layer 1" xmlns="http://www.w3.org/2000/svg" viewBox="0 0 126.47 18.06"><path d="M28.72,5.57a9.29,9.29,0,0,0,1.21-2,2.46,2.46,0,0,1,1.7-1.2,1.35,1.35,0,0,1,1.58.87A12.68,12.68,0,0,1,34.3,7c.21,1.19.3,4.21.36,5.44A2.49,2.49,0,0,1,33.12,15a1.82,1.82,0,0,1-1.18-1.56c0-1.45-.21-4.64-.8-6a1.78,1.78,0,0,0-.25-.36c-.58.36-.4,1-.73,1.57a9.37,9.37,0,0,1-.79,1.46,1.75,1.75,0,0,1-2,.74,2,2,0,0,1-1.45-1.81c0-.33-.13-.65-.23-1.2a5.44,5.44,0,0,0-.78,2.57,20.89,20.89,0,0,1-1.09,4.32c-.41.68-.85.86-1.43.64a1.43,1.43,0,0,1-1.08-1.58c0-.64.52-3,.64-3.59.16-.84.34-1.68.5-2.51a19.12,19.12,0,0,0,.35-2.12c.06-.7,0-1.42,0-2.26,1.26-.53,2.4-1,3.58-1.43,1-.32,1.72.25,1.93,1.48A6.58,6.58,0,0,0,28.72,5.57Z" transform="translate(0 0.14)"/><path d="M16.24,8.45l-1.83.68c-.52,1.54-1,3.07-1.56,4.58a4.77,4.77,0,0,1-.53,1.2,1.06,1.06,0,0,1-1.36.26,1,1,0,0,1-.54-1.11,7.62,7.62,0,0,1,.32-1.13L13,6.13a3.57,3.57,0,0,0,.21-1c0-1.2.92-2,1.48-2.91a2,2,0,0,1,.74-.64,1.52,1.52,0,0,1,2.07.46,6.21,6.21,0,0,1,.82,2.17,5.14,5.14,0,0,0,.53,1.92,1.14,1.14,0,0,1,.05.94,9,9,0,0,0-.3,3.31c0,.72,0,1.44,0,2.16A1.68,1.68,0,0,1,17.64,14c-.34.17-.64.56-1.06.36s-.37-.74-.39-1.18C16.22,11.72,16.23,10.23,16.24,8.45Zm-.87-2.19c.48.17.7,0,.71-.31a6.86,6.86,0,0,0-.19-1.19c-.46.45-.41,1-.52,1.48Z" transform="translate(0 0.14)"/><path d="M107.84,12.19a6.47,6.47,0,0,0,1.27-3,1.13,1.13,0,0,1,.18-.67,3.59,3.59,0,0,0,.45-3.21,1.93,1.93,0,0,1,0-.48,4.21,4.21,0,0,1,.71-.62,1.82,1.82,0,0,0,.84-1.08,2.13,2.13,0,0,1,.49-.91,1.87,1.87,0,0,1,2.65-.17,1.84,1.84,0,0,1,.54.8c.4.85.62,1.78,1,2.67.22.59.49,1.16.85,2A7.32,7.32,0,0,0,116.7,11,48.91,48.91,0,0,0,119,2.41a1.52,1.52,0,0,1,1.91,0,3.12,3.12,0,0,1,1.48,2.1,16.7,16.7,0,0,0,1.1,3.86,6,6,0,0,0,.77-3,4.44,4.44,0,0,0-.06-2.88,1.29,1.29,0,0,1,1.52-.76.9.9,0,0,1,.8,1h0c-.06,1.12-.09,2.24-.25,3.35-.27,1.93-.61,3.84-1,5.76-.17.92-.64,1.39-1.31,1.43a1.61,1.61,0,0,1-1.67-1.06c-.51-1.19-1-2.41-1.43-3.62-.06-.17-.1-.34-.15-.5-.31-.07-.39.11-.47.35-.52,1.5-1,3-1.61,4.48-.46,1.14-1,1.38-2.22,1.19a2,2,0,0,1-.49-.13c-.78.54-1.38,1.57-2.69.84A7.8,7.8,0,0,0,114,12c0-.94.06-1.88.09-2.8-1.44-.21-1.93.08-2.42,1.19-.61,1.34-1.24,2.68-1.92,4a1.84,1.84,0,0,1-1.7,1.09.88.88,0,0,1-.92-1.17c.2-.73.78-1.33.73-2.15Zm5.81-5.53a2.39,2.39,0,0,0-.72-1.49,2,2,0,0,0-.27,1.68Z" transform="translate(0 0.14)"/><path d="M105.73,13.57l-.66.31a1.55,1.55,0,0,1-2.23-.87,2,2,0,0,1-.12-.34c-.18-.48-.33-1-.56-1.64-.63.85-1.17,1.65-1.76,2.35a2.86,2.86,0,0,1-1.15,1,1.59,1.59,0,0,1-2.18-1.07,1.05,1.05,0,0,1,0-.19,4.54,4.54,0,0,0-.49-.79L95.85,14c-.7,1.68-1.83,1.77-2.8.21a3.27,3.27,0,0,1-.17-.53c.29-1,.62-2.06.93-3.13a20.87,20.87,0,0,0,1-5.85c0-1.11.25-1.51,1-1.58a6,6,0,0,0,2.36-.8,1.47,1.47,0,0,1,.54-.1,1,1,0,0,1,1.09.89,14.9,14.9,0,0,1,.11,2.31c-.07,1.37-.21,2.73-.32,4.08.44.3.57-.1.75-.36a35.62,35.62,0,0,0,3.15-6.37c.28-.67.26-.37.59-1.1a6.12,6.12,0,0,1,1-.32c1.08-.14,1.69.67,1.57,2.08a8.44,8.44,0,0,1-.31,1.32c-.47,1.91-.63,2.85-1.12,4.75a3.13,3.13,0,0,0,.19,2.4,6.59,6.59,0,0,1,.33,1.77Z" transform="translate(0 0.14)"/><path d="M47,10.35a7.92,7.92,0,0,0,1.34-.48c1.21-.78,2.41-1.61,3.6-2.42a10.61,10.61,0,0,1,1.36-.94,3.94,3.94,0,0,1,1.59-.33,1.33,1.33,0,0,1,1.25,1.39,1.36,1.36,0,0,1-.11.44,2.57,2.57,0,0,1-.8,1.1c-1.53,1-2.19,2.64-3.06,4.11-.31.53-.48,1.15-.79,1.69a2.88,2.88,0,0,0-.27,2.19,1.87,1.87,0,0,1-2,.76c-.8-.2-1.22-.84-1.56-1.71.36-1,.74-2,1.22-3.35l-1.18.32a3.78,3.78,0,0,1-2.82-.23,1.94,1.94,0,0,1-1.1-2.53v0a11.63,11.63,0,0,1,1.09-2.66c1.36-2.19,2.82-4.26,4.28-6.36a4.52,4.52,0,0,1,1-1A2.13,2.13,0,0,1,51.82-.1a1.62,1.62,0,0,1,1.29,1.21,1.18,1.18,0,0,1-.54,1.42,18,18,0,0,0-5.19,6.58A8.81,8.81,0,0,0,47,10.35Z" transform="translate(0 0.14)"/><path d="M.81,16.43c1.3-2.14,3-3.95,3.91-6.33a23,23,0,0,1-2.35.17A3.6,3.6,0,0,1,.93,9.91C-.1,9.38-.28,8.76.41,7.77,1.56,6.12,2.8,4.53,4,2.92c.49-.65,1-1.29,1.46-2A2.46,2.46,0,0,1,8.14.14a1.85,1.85,0,0,1,1,1.5A1.32,1.32,0,0,1,8.29,3,10.54,10.54,0,0,0,4.58,6.65c-.06.08,0,.22,0,.35.43.16.66-.21,1-.38s.5-.39.78-.53a13.83,13.83,0,0,1,2-1,1.23,1.23,0,0,1,1.51,1.6,7.62,7.62,0,0,1-.82,1.7c-1.33,2.13-2.7,4.25-4,6.38a11.4,11.4,0,0,0-.85,1.67c-.31.73-.66,1.39-1.55,1.47S1.15,17.4.81,16.43Z" transform="translate(0 0.14)"/><path d="M88.49,5.58a8.35,8.35,0,0,0,0-1.87c.08-1.45-.51-1.66,1.05-1.79a1.5,1.5,0,0,1,1.81,1.14,1.1,1.1,0,0,1,0,.31,9.52,9.52,0,0,1,0,1.85A2,2,0,0,0,92.09,7a.76.76,0,0,1,.12,1,.81.81,0,0,1-.3.22,3.25,3.25,0,0,0-1.63,2.45,18.6,18.6,0,0,1-1.18,3.06,1.6,1.6,0,0,1-1.51.9A.93.93,0,0,1,86.5,14a1,1,0,0,1,.07-.56A19.72,19.72,0,0,0,87.72,9a8.58,8.58,0,0,0-1.24-.06c-1.62.08-1.91.38-1.79,2.08a3.27,3.27,0,0,1-.33,2,1.67,1.67,0,0,1-2.11.79,1.46,1.46,0,0,1-1-1.77c.13-.89.41-1.74.49-2.64a13.7,13.7,0,0,1,.39-3.25,3.83,3.83,0,0,0-.22-2.41c-.37-1.12.09-1.74,1.19-1.85A1.66,1.66,0,0,1,85.15,3a1.31,1.31,0,0,1,.06.27,5.53,5.53,0,0,1,.1,1.22c0,.52,0,1.09,0,1.67A3.66,3.66,0,0,0,88.49,5.58Z" transform="translate(0 0.14)"/><path d="M67.69,7.63a5.14,5.14,0,0,1-1.38,4.05,8.57,8.57,0,0,1-4.86,2.64,3.32,3.32,0,0,1-3.8-3.44,29.7,29.7,0,0,1,1.11-5.74,5.74,5.74,0,0,1,3.66-3.53,2,2,0,0,1,2.48.9,4.79,4.79,0,0,0,.81.93A5.87,5.87,0,0,1,67.69,7.63ZM63,4.8A3.22,3.22,0,0,0,61.45,7c-.47,1.43-1,2.84-.54,4.43,1.2-.09,1.21-.08,1.6-.4a5,5,0,0,0,1.8-2.22A3.56,3.56,0,0,0,63,4.8Z" transform="translate(0 0.14)"/><path d="M72.46,10.87a2.84,2.84,0,0,0,3,.68c.7-.22,1.37-.61,2-.89a3.91,3.91,0,0,1,1.15-.3.87.87,0,0,1,.91.86,1,1,0,0,1-.1.51,4.11,4.11,0,0,1-.87,1.18,6.78,6.78,0,0,1-7.8.7,3.7,3.7,0,0,1-1.4-1.84,2.1,2.1,0,0,1-.07-1.5,21.58,21.58,0,0,1,4.21-7.56,5.21,5.21,0,0,1,1.9-1.19,1.16,1.16,0,0,1,1.39.64,1.3,1.3,0,0,1-.13,1.46,7.31,7.31,0,0,1-.8,1A15.67,15.67,0,0,0,72.46,10.87Z" transform="translate(0 0.14)"/></svg>