<svg xmlns="http://www.w3.org/2000/svg" viewBox="0 0 37.23 18.97"><g id="Layer_2" data-name="Layer 2"><g id="Layer_1-2" data-name="Layer 1"><path d="M23.35,7.22a3.92,3.92,0,0,0-2.11-1.59A2.15,2.15,0,0,1,19.92,3.2a6,6,0,0,1,.39-1.83c.45-1.21,2.47-1.81,3.32-1a3.16,3.16,0,0,1,.64.68,6.63,6.63,0,0,0,2.34,2.16,26.32,26.32,0,0,0,6.33,2.91,7.66,7.66,0,0,0,1.77.18c.65.75,1.43,1.58,2.11,2.47a1.68,1.68,0,0,1,.07,2.11,4.57,4.57,0,0,1-3.65,2.35,13.7,13.7,0,0,0-4.45,1.5,39.37,39.37,0,0,0-5.7,2.94,9,9,0,0,1-3.54,1.22c-1.62.24-3.16.05-4.1-1.88a4.92,4.92,0,0,1,.07-.49,2.61,2.61,0,0,1,2.06-2.2c1-.28,2.05-.62,3.06-1a6.1,6.1,0,0,0,.92-.47c-.07-.56-.45-.52-.73-.54-1.63-.13-3.26-.27-4.9-.35-3-.15-6-.3-9-.36-1.57,0-3.13.15-4.71.07C1.12,11.65.67,10.94.1,10.31A.71.71,0,0,1,0,9.77,2.43,2.43,0,0,1,1.4,7.89a11.43,11.43,0,0,1,4.23-.84,87.88,87.88,0,0,1,10.76.27A29.64,29.64,0,0,0,23.35,7.22Z"/></g></g></svg>