<svg xmlns="http://www.w3.org/2000/svg" viewBox="0 0 27.67 16.69"><g id="Layer_2" data-name="Layer 2"><g id="Layer_1-2" data-name="Layer 1"><path d="M13.1,10.83a22.87,22.87,0,0,0-6.28-.26A20.32,20.32,0,0,1,.76,9.71C.3,9.6.3,9,.25,8.76a.84.84,0,0,1,.3-1.38A7.76,7.76,0,0,1,2.74,6.9c2.65,0,5.27-.25,7.91-.4.56,0,1.13,0,1.69,0a3.62,3.62,0,0,0,.84-.29,4.41,4.41,0,0,0-2-.92A7.8,7.8,0,0,1,9.91,5,2.76,2.76,0,0,1,8.25,1.77a1.64,1.64,0,0,1,.38-.65C9,.72,9.44.35,9.81,0c2.81,1.15,5.42,2.23,8,3.29,1.74.72,3.49,1.43,5.25,2.1a3.15,3.15,0,0,0,1.29.2A3.37,3.37,0,0,1,25.83,6a3.09,3.09,0,0,1,1.83,2.86,2.39,2.39,0,0,1-1.31,2.35,10.73,10.73,0,0,1-2.12.69c-.6.17-1.24.21-1.83.4q-3.67,1.2-7.32,2.47c-1.12.39-2.21.9-3.33,1.3a19.5,19.5,0,0,1-2.35.65,6.78,6.78,0,0,1-3.16-1,1.12,1.12,0,0,1,.09-1.91,9.16,9.16,0,0,1,1.54-.66c1.52-.59,3.05-1.15,4.57-1.74C12.6,11.31,12.72,11.15,13.1,10.83Z"/></g></g></svg>