<?xml version="1.0" encoding="utf-8"?>
<!-- Generator: Adobe Illustrator 24.2.3, SVG Export Plug-In . SVG Version: 6.00 Build 0)  -->
<svg version="1.1" id="Capa_1" xmlns="http://www.w3.org/2000/svg" xmlns:xlink="http://www.w3.org/1999/xlink" x="0px" y="0px"
	 viewBox="0 0 63.2 94.7" style="enable-background:new 0 0 63.2 94.7;" xml:space="preserve">
<style type="text/css">
	.st0{fill:none;}
	.st1{fill:#2C47BF;}
</style>
<line class="st0" x1="46.9" y1="35.4" x2="16.3" y2="35.4"/>
<path class="st1" d="M57.2,94.7H6c-3.3,0-6-2.7-6-6V41.4c0-3.3,2.7-6,6-6h51.3c3.3,0,6,2.7,6,6v47.4C63.2,92,60.5,94.7,57.2,94.7z"
	/>
<path class="st1" d="M45.5,20.1h11.8C54.5,8.6,44,0,31.6,0C17,0,5.1,11.9,5.1,26.5v8.9h11.2v-8.9c0-8.4,6.9-15.3,15.3-15.3
	C37.7,11.2,43.1,14.9,45.5,20.1z"/>
</svg>
