<svg xmlns="http://www.w3.org/2000/svg" viewBox="0 0 128.83 41.09"><g id="Layer_2" data-name="Layer 2"><path d="M112.22,15.87c-3.78-4-10.31-7.48-13.54-10.51-1.43-1.11-2.43-1.85-1.42-3.52A3.6,3.6,0,0,1,102.47.63c8,4.73,16.1,9.34,23.69,14.66,4.22,3,3.33,6.47-1.86,8.88-6.92,3.22-14,6.1-21,9.09C98.4,35.33,93.16,36.54,88.88,40c-1.62,1.3-3.75,1.78-5.33-.14-1.45-1.76-.29-3.1.87-4.89a27.21,27.21,0,0,1,7.49-4.52c3.7-1.38,11.81-5.16,15.91-6.71-6.33-1-25.65-1.38-33.09-1.39C61.2,22.36,19.49,21,7,23.14a15.9,15.9,0,0,1-4.95-.23,2.17,2.17,0,0,1-2-1.86,2.58,2.58,0,0,1,1.17-2.48,11.21,11.21,0,0,1,5.55-2c23.41-1.88,74.93-2.38,95.47-.33C104.13,16.52,109.5,17.17,112.22,15.87Z"/></g></svg>