<svg xmlns="http://www.w3.org/2000/svg" viewBox="0 0 128.83 41.09"><g id="Layer_2" data-name="Layer 2"><path d="M99.46,23.78c-15.26-.42-70.93,0-86.21.94-2.79.17-5,1.8-7.49,2.92A3.68,3.68,0,0,1,.53,25.81c-1.34-2.9,0-5.26,2.17-6.8,3.54-2.56,7.6-2.34,11.59-2.68,20.23-1.74,66,.25,86.22-.48a2.89,2.89,0,0,0,1.43-.77c-5.56-3.62-5.79-3.22-11.6-4.45a58.39,58.39,0,0,1-5.9-1.1C81.7,8.67,79.3,6.94,80,3.12c.59-3.53,3.27-3.22,5.63-3,14.64,1.39,27.5,8.84,40.25,16.31,4.54,2.65,3.8,8-1.34,10-5.64,2.23-11.61,3.31-17.39,5.08-5.42,1.66-11.29,2.11-15.59,7.05-2.14,2.47-4.47,3.54-7.05,1.19-2.84-2.57-.35-4.91,1.35-7.64C91,27.23,99.46,25.12,99.46,23.78Z"/></g></svg>